<mxfile host="app.diagrams.net" modified="2023-06-13T16:51:52.471Z" agent="Mozilla/5.0 (Windows NT 10.0; Win64; x64) AppleWebKit/537.36 (KHTML, like Gecko) Chrome/114.0.0.0 Safari/537.36" etag="0c28sLQkccu0Pzaies4Q" version="21.3.8" type="device">
  <diagram name="PÃ¡gina-1" id="zHEHRexkEi_PcaNpZOcg">
    <mxGraphModel dx="2345" dy="-495" grid="1" gridSize="10" guides="1" tooltips="1" connect="1" arrows="1" fold="1" page="1" pageScale="1" pageWidth="827" pageHeight="1169" math="0" shadow="0">
      <root>
        <mxCell id="0" />
        <mxCell id="1" parent="0" />
        <mxCell id="sg7OMgiajApuykTyA2kg-3" value="&amp;lt;&amp;lt;Entity&amp;gt;&amp;gt;&lt;br&gt;&amp;lt;&amp;lt;Root&amp;gt;&amp;gt;&lt;br style=&quot;border-color: var(--border-color);&quot;&gt;Board " style="rounded=0;whiteSpace=wrap;html=1;" vertex="1" parent="1">
          <mxGeometry x="-320" y="1570" width="120" height="60" as="geometry" />
        </mxCell>
        <mxCell id="sg7OMgiajApuykTyA2kg-4" value="&amp;lt;&amp;lt;Entity&amp;gt;&amp;gt;&lt;br&gt;&amp;lt;&amp;lt;Root&amp;gt;&amp;gt;&lt;br&gt;Post-It " style="rounded=0;whiteSpace=wrap;html=1;" vertex="1" parent="1">
          <mxGeometry x="-221.35" y="1333.15" width="120" height="60" as="geometry" />
        </mxCell>
        <mxCell id="sg7OMgiajApuykTyA2kg-5" value="&amp;lt;&amp;lt;Entity&amp;gt;&amp;gt;&lt;br&gt;&amp;lt;&amp;lt;Root&amp;gt;&amp;gt;&lt;br style=&quot;border-color: var(--border-color);&quot;&gt;Board History" style="rounded=0;whiteSpace=wrap;html=1;" vertex="1" parent="1">
          <mxGeometry x="-10.000000000000004" y="1667" width="120" height="60" as="geometry" />
        </mxCell>
        <mxCell id="sg7OMgiajApuykTyA2kg-7" value="&amp;lt;&amp;lt;Value Object&amp;gt;&amp;gt;&lt;br&gt;Board Title" style="rounded=0;whiteSpace=wrap;html=1;" vertex="1" parent="1">
          <mxGeometry x="-351.35" y="1670" width="100" height="42" as="geometry" />
        </mxCell>
        <mxCell id="sg7OMgiajApuykTyA2kg-8" value="&amp;lt;&amp;lt;Value Object&amp;gt;&amp;gt;&lt;br&gt;Column" style="rounded=0;whiteSpace=wrap;html=1;" vertex="1" parent="1">
          <mxGeometry x="-480" y="1694" width="120" height="60" as="geometry" />
        </mxCell>
        <mxCell id="sg7OMgiajApuykTyA2kg-9" value="&amp;lt;&amp;lt;Value Object&amp;gt;&amp;gt;&lt;br&gt;Row " style="rounded=0;whiteSpace=wrap;html=1;" vertex="1" parent="1">
          <mxGeometry x="-480" y="1450" width="120" height="60" as="geometry" />
        </mxCell>
        <mxCell id="sg7OMgiajApuykTyA2kg-10" value="&amp;lt;&amp;lt;Value Object&amp;gt;&amp;gt;&lt;br&gt;Row Title" style="rounded=0;whiteSpace=wrap;html=1;" vertex="1" parent="1">
          <mxGeometry x="-409" y="1355.72" width="120" height="60" as="geometry" />
        </mxCell>
        <mxCell id="sg7OMgiajApuykTyA2kg-11" value="&amp;lt;&amp;lt;Value Object&amp;gt;&amp;gt;&lt;br&gt;Column Title" style="rounded=0;whiteSpace=wrap;html=1;" vertex="1" parent="1">
          <mxGeometry x="-400" y="1790" width="120" height="60" as="geometry" />
        </mxCell>
        <mxCell id="sg7OMgiajApuykTyA2kg-12" value="&amp;lt;&amp;lt;Entity&amp;gt;&amp;gt;&lt;br&gt;Cell " style="rounded=0;whiteSpace=wrap;html=1;" vertex="1" parent="1">
          <mxGeometry x="-480" y="1562.97" width="120" height="60" as="geometry" />
        </mxCell>
        <mxCell id="sg7OMgiajApuykTyA2kg-13" value="&amp;lt;&amp;lt;Value Object&amp;gt;&amp;gt;&lt;br&gt;Column Identifier" style="rounded=0;whiteSpace=wrap;html=1;" vertex="1" parent="1">
          <mxGeometry x="-550" y="1790" width="120" height="60" as="geometry" />
        </mxCell>
        <mxCell id="sg7OMgiajApuykTyA2kg-14" value="&amp;lt;&amp;lt;Value Object&amp;gt;&amp;gt;&lt;br&gt;Row Identifier" style="rounded=0;whiteSpace=wrap;html=1;" vertex="1" parent="1">
          <mxGeometry x="-550" y="1355.72" width="120" height="60" as="geometry" />
        </mxCell>
        <mxCell id="sg7OMgiajApuykTyA2kg-15" value="&amp;lt;&amp;lt;Value Object&amp;gt;&amp;gt;&lt;br&gt;Permission" style="rounded=0;whiteSpace=wrap;html=1;" vertex="1" parent="1">
          <mxGeometry x="330" y="1197.4299999999998" width="120" height="60" as="geometry" />
        </mxCell>
        <mxCell id="sg7OMgiajApuykTyA2kg-16" value="&amp;lt;&amp;lt;Value Object&amp;gt;&amp;gt;&lt;br&gt;Content " style="rounded=0;whiteSpace=wrap;html=1;" vertex="1" parent="1">
          <mxGeometry x="-251.35" y="1217.3000000000002" width="102.35" height="62.57" as="geometry" />
        </mxCell>
        <mxCell id="sg7OMgiajApuykTyA2kg-17" style="edgeStyle=orthogonalEdgeStyle;rounded=0;orthogonalLoop=1;jettySize=auto;html=1;exitX=0;exitY=0;exitDx=0;exitDy=0;" edge="1" parent="1">
          <mxGeometry relative="1" as="geometry">
            <mxPoint x="-79.66666666666674" y="1560" as="targetPoint" />
            <mxPoint x="-80" y="1559.9999999999998" as="sourcePoint" />
          </mxGeometry>
        </mxCell>
        <mxCell id="sg7OMgiajApuykTyA2kg-18" value="&amp;lt;&amp;lt;Entity&amp;gt;&amp;gt;&lt;br&gt;&amp;lt;&amp;lt;Root&amp;gt;&amp;gt;&lt;br style=&quot;border-color: var(--border-color);&quot;&gt;Board owner" style="rounded=0;whiteSpace=wrap;html=1;" vertex="1" parent="1">
          <mxGeometry x="147.35" y="1560" width="112.65" height="50" as="geometry" />
        </mxCell>
        <mxCell id="sg7OMgiajApuykTyA2kg-19" value="&amp;lt;&amp;lt;Entity&amp;gt;&amp;gt;&lt;br&gt;&amp;lt;&amp;lt;Root&amp;gt;&amp;gt;&lt;br style=&quot;border-color: var(--border-color);&quot;&gt;Board Participant" style="rounded=0;whiteSpace=wrap;html=1;" vertex="1" parent="1">
          <mxGeometry x="263.78" y="1396" width="120" height="60" as="geometry" />
        </mxCell>
        <mxCell id="sg7OMgiajApuykTyA2kg-20" value="creates/archives" style="endArrow=classic;html=1;rounded=0;entryX=1;entryY=0.5;entryDx=0;entryDy=0;exitX=0;exitY=0.5;exitDx=0;exitDy=0;" edge="1" parent="1" source="sg7OMgiajApuykTyA2kg-18" target="sg7OMgiajApuykTyA2kg-3">
          <mxGeometry x="-0.1539" y="-14" width="50" height="50" relative="1" as="geometry">
            <mxPoint x="-10" y="1590" as="sourcePoint" />
            <mxPoint x="-90" y="1670" as="targetPoint" />
            <mxPoint as="offset" />
          </mxGeometry>
        </mxCell>
        <mxCell id="sg7OMgiajApuykTyA2kg-21" value="participates" style="endArrow=classic;html=1;rounded=0;entryX=1;entryY=0;entryDx=0;entryDy=0;exitX=0;exitY=0.75;exitDx=0;exitDy=0;labelBackgroundColor=none;" edge="1" parent="1" source="sg7OMgiajApuykTyA2kg-19" target="sg7OMgiajApuykTyA2kg-3">
          <mxGeometry x="0.3328" y="-18" width="50" height="50" relative="1" as="geometry">
            <mxPoint x="70" y="1490" as="sourcePoint" />
            <mxPoint x="60" y="1450" as="targetPoint" />
            <mxPoint as="offset" />
          </mxGeometry>
        </mxCell>
        <mxCell id="sg7OMgiajApuykTyA2kg-22" value="" style="endArrow=diamondThin;endFill=1;endSize=24;html=1;rounded=0;exitX=0.5;exitY=0;exitDx=0;exitDy=0;" edge="1" parent="1" source="sg7OMgiajApuykTyA2kg-7" target="sg7OMgiajApuykTyA2kg-3">
          <mxGeometry width="160" relative="1" as="geometry">
            <mxPoint x="-110" y="1680" as="sourcePoint" />
            <mxPoint x="-140" y="1630" as="targetPoint" />
          </mxGeometry>
        </mxCell>
        <mxCell id="sg7OMgiajApuykTyA2kg-23" value="" style="endArrow=diamondThin;endFill=1;endSize=24;html=1;rounded=0;exitX=0.5;exitY=1;exitDx=0;exitDy=0;entryX=0.25;entryY=0;entryDx=0;entryDy=0;" edge="1" parent="1" source="sg7OMgiajApuykTyA2kg-14" target="sg7OMgiajApuykTyA2kg-9">
          <mxGeometry width="160" relative="1" as="geometry">
            <mxPoint x="-200" y="1680" as="sourcePoint" />
            <mxPoint x="-200" y="1630" as="targetPoint" />
          </mxGeometry>
        </mxCell>
        <mxCell id="sg7OMgiajApuykTyA2kg-24" value="" style="endArrow=diamondThin;endFill=1;endSize=24;html=1;rounded=0;exitX=0.5;exitY=1;exitDx=0;exitDy=0;entryX=0.75;entryY=0;entryDx=0;entryDy=0;" edge="1" parent="1" source="sg7OMgiajApuykTyA2kg-10">
          <mxGeometry width="160" relative="1" as="geometry">
            <mxPoint x="-189" y="1690" as="sourcePoint" />
            <mxPoint x="-389" y="1450" as="targetPoint" />
          </mxGeometry>
        </mxCell>
        <mxCell id="sg7OMgiajApuykTyA2kg-25" value="" style="endArrow=diamondThin;endFill=1;endSize=24;html=1;rounded=0;exitX=0.5;exitY=0;exitDx=0;exitDy=0;entryX=0.25;entryY=1;entryDx=0;entryDy=0;" edge="1" parent="1" source="sg7OMgiajApuykTyA2kg-13" target="sg7OMgiajApuykTyA2kg-8">
          <mxGeometry width="160" relative="1" as="geometry">
            <mxPoint x="-470" y="1780" as="sourcePoint" />
            <mxPoint x="-350" y="1460" as="targetPoint" />
          </mxGeometry>
        </mxCell>
        <mxCell id="sg7OMgiajApuykTyA2kg-26" value="" style="endArrow=diamondThin;endFill=1;endSize=24;html=1;rounded=0;exitX=0.5;exitY=0;exitDx=0;exitDy=0;entryX=0.75;entryY=1;entryDx=0;entryDy=0;" edge="1" parent="1" source="sg7OMgiajApuykTyA2kg-11" target="sg7OMgiajApuykTyA2kg-8">
          <mxGeometry width="160" relative="1" as="geometry">
            <mxPoint x="-310" y="1780" as="sourcePoint" />
            <mxPoint x="-340" y="1470" as="targetPoint" />
          </mxGeometry>
        </mxCell>
        <mxCell id="sg7OMgiajApuykTyA2kg-27" value="has" style="endArrow=classic;html=1;rounded=0;exitX=1;exitY=0;exitDx=0;exitDy=0;entryX=0;entryY=1;entryDx=0;entryDy=0;" edge="1" parent="1" source="sg7OMgiajApuykTyA2kg-12" target="sg7OMgiajApuykTyA2kg-4">
          <mxGeometry x="0.1082" y="-18" width="50" height="50" relative="1" as="geometry">
            <mxPoint x="-280" y="1670" as="sourcePoint" />
            <mxPoint x="-230" y="1620" as="targetPoint" />
            <mxPoint as="offset" />
          </mxGeometry>
        </mxCell>
        <mxCell id="sg7OMgiajApuykTyA2kg-28" value="" style="endArrow=diamondThin;endFill=1;endSize=24;html=1;rounded=0;exitX=0.5;exitY=1;exitDx=0;exitDy=0;" edge="1" parent="1" source="sg7OMgiajApuykTyA2kg-15">
          <mxGeometry width="160" relative="1" as="geometry">
            <mxPoint x="451.4" y="1467" as="sourcePoint" />
            <mxPoint x="360" y="1400" as="targetPoint" />
          </mxGeometry>
        </mxCell>
        <mxCell id="sg7OMgiajApuykTyA2kg-29" value="has" style="endArrow=classic;html=1;rounded=0;" edge="1" parent="1">
          <mxGeometry x="-0.1194" y="-11" width="50" height="50" relative="1" as="geometry">
            <mxPoint x="-320" y="1590" as="sourcePoint" />
            <mxPoint x="-360" y="1590" as="targetPoint" />
            <mxPoint as="offset" />
          </mxGeometry>
        </mxCell>
        <mxCell id="sg7OMgiajApuykTyA2kg-30" value="" style="endArrow=diamondThin;endFill=1;endSize=24;html=1;rounded=0;exitX=0.5;exitY=1;exitDx=0;exitDy=0;entryX=0.5;entryY=0;entryDx=0;entryDy=0;" edge="1" parent="1" source="sg7OMgiajApuykTyA2kg-16" target="sg7OMgiajApuykTyA2kg-4">
          <mxGeometry width="160" relative="1" as="geometry">
            <mxPoint x="27.65" y="1397.43" as="sourcePoint" />
            <mxPoint x="-12.350000000000001" y="1457.43" as="targetPoint" />
          </mxGeometry>
        </mxCell>
        <mxCell id="sg7OMgiajApuykTyA2kg-31" value="" style="shape=stencil(lVrZchw3DPyafWURPEDy2XH+w1WWI1UUySXLOf4+YLY4u2zO9ERvOgCSAwKNBsBL/PTj8cv3h0vwP97fXn9/+Ovp6/vjJf5yCeHp5fHh7endfrrEz5f46dvr28Nvb68/X75ef//+pUv2n/54/bOv8PdVT11pXSn4f65/aC7G//7w61X8+enlTjy7nCdxCa7lY/nk6ry8ZKfK5EOZ5aur5Vg+Op3lQ3AqTF5kltdxwl35gOtHcZmcJ7ios7y67Kn8fJ5k6xP7BJdB3i6QrB+dn8+fxdXE5FuY5W39yvzBz9+r4hKxv7o0n0ezK+R7q5M4yzcq3/D8JboUjuVFxudtCtygYh43e3RpfIc8HGYoVLsCtkNxcd6hRnpn0pyAQh5uu+9E4vwcxdX2JDt0N5qvuVbXiFuYX4Q0w4ofnruvUEbYbgonjuqdzDfd7JAs8pdQNoVKviFmF/2skJyyIxXXZis1MwMDO7NJQwXm3cnga/bWpi4QX0q2nqACw8dkAQdWKs4T987eaUYFFg85Lq5RXCFmzdm1hgrs4rL55rJDJWbV4Pyyg5IsaKCVlh2EpEFDLZ/wHhLJOyWMtHfnGkpuusMW7JAGjuwjqzkfBFCgqbAm58H5ZHzVvkLBZGioUYiVDCMg4qoO4NlXsBPP6aEaHSHIZzZp8w6G3pl8dL+m2b1LHlG+r1DGNW0KwQmxUqsuzjtoHXh+pAA3rWmE1JFChR28SySATEHnm86FYmv/hhlmLMoL+4YyUuCm4CkI9Piaj5RsCQIz68UZFgbmfHn45qawedeRAnDJjufMrAnJW6wjBvcVFjZmbFK5AvhSTJwuBVeA34ax576CYAFglKsQ16jGyOYQNQ6YGWos3tqLCHIkg5k8w0ynK0xBkc0YIRJGQg1JoSpplC/VhaYbqWP0p4PxfCSjjYx3l4roLWlk7qP8EOd7sMqtECuVhFYyrsxQoxiVhh08rwWaC5BQaE7UjZlvaE+/QOPgqDd5Tz7AShcoNgqt3YxnAAXVQTz25RMSGaUGtVJN5/NkSroNEeF7jcEy+YRlAA+02DDbJko+VwIdaW1rlB4qpXBWZIA/BIq/wQ8WeJNn9FwU66owLvyollzWZ5nfvCvicZj5kcoHas2ltuDlkR+k/f/Z3o9cehNn1dpSrPEujXceLRO5+OwHQkngsrpQsu8xzQvtkJllcHVPQM1jse8phiwh4iln98hpPCWvHtnxhoj7Dj/S7J1lyGEEqyzhnRYnGN2e8DdZkjoFP4+1eqAtEz+Q8c7f6epQFMfhokfBVz4kHtEyjYoLfiqzu18Nyer5JfjCib97jCZWEnrsX8rJYQRdjBE7P1jcXXjQWwVW50/s/iHxOBrjN/HEsweuLiyaluTkKUmWrbF0J88a2Qt2eJr8wlJu2edycqB4V6yn08kHugIzZ1w6x4GSRSNPgjmKRVWq6MmRlqNG/koAeZZhc8buTKIlipHXgGSOdaWNHEPbLtP1NWHKN/LKigHFhpcOenRUPCTow49q4qg6AfJdeb2U0H8aJbu9/7ZUPywBlbawFuGjkKU8kUj7PnXpFstJJZ1HyG4KvEKx0hu/wdyK1bkVE2OHFdb38ejWndyxVpQsyfGkFWWsG1h+pnywxSXyeZ3YIs5Y+5CVfcPie1Foe7m3Necjxcgbp3mA7aaQKbw3xZuOfC5gCtAoMoRlAdc7fMsolGWEPjaA8jXSWXSrCBlJR69pX6EhY01toMiRQoYKPLrIrNRwPp6Vz/r8wrfUc3ddqnblYyxTAO/TynuCFZtXJVIUsJuDGC2FB0Qebc8NvIXvELGcrSeNUI9zYMM2VkTavwHvm6dMdm0i9oElH9CsEx1WvVkKAgrTOHyXiL7UY4qRgDZgaFOodCqleRkyNdpz0YDgagrMrDvDvkZJfM5Y+d3F1L5GXGaijXLPvHRzOzCQkEt1Ga01yp5TXsbldfjjvkJcdqgUmdI2IrrzDTouL4gzPcz5fF2WmSiL0RiwTL5lpf0ao+Eo4Taz2VdYgKmPYIhZO2mGHU56kGHnnYNnO3jMo7VRsxoDg0Kp8mG2cTzobdTMGzMJI8iYJnsUZTwVOm71pLEkqFDqeBi2D9/IHYy+M2ct2L4svEuXsVWr/NnY0lk3XGNNw4BulMvw9YNmVwP5jcUeyEPuSUqf1QmGZn+WRtBCsNKISksTWRpe2woH8hWqAOUPlpDC9BXosz0oDqVQyrM8ArOYYCVAQuZpHs6eQeblkRklIxkLjJMXNcsjuYEx+zkZOxeFdlJ0TDFu4qwrrAPN7lYnlleMxEIdU7GpVsbThgPxgp/KWnaKYVtpu1GR7Fda4Ch21CpNj4oNvkb75R98+Hsqbj/c3hh/e3p+vj5Rvv8/vkm2P13fM8fP/wI=);lineShape=1;rotation=60;" vertex="1" parent="1">
          <mxGeometry x="110.24" y="1540.91" width="196.47" height="159.9" as="geometry" />
        </mxCell>
        <mxCell id="sg7OMgiajApuykTyA2kg-32" value="1" style="text;html=1;strokeColor=none;fillColor=none;align=center;verticalAlign=middle;whiteSpace=wrap;rounded=0;fontSize=10;" vertex="1" parent="1">
          <mxGeometry x="-339" y="1592" width="20" height="16" as="geometry" />
        </mxCell>
        <mxCell id="sg7OMgiajApuykTyA2kg-33" value="1..*" style="text;html=1;strokeColor=none;fillColor=none;align=center;verticalAlign=middle;whiteSpace=wrap;rounded=0;fontSize=10;" vertex="1" parent="1">
          <mxGeometry x="-359" y="1600.05" width="20" height="16" as="geometry" />
        </mxCell>
        <mxCell id="sg7OMgiajApuykTyA2kg-34" value="has" style="endArrow=classic;html=1;rounded=0;exitX=0.5;exitY=1;exitDx=0;exitDy=0;entryX=0.5;entryY=0;entryDx=0;entryDy=0;" edge="1" parent="1" source="sg7OMgiajApuykTyA2kg-12" target="sg7OMgiajApuykTyA2kg-8">
          <mxGeometry x="0.0427" y="10" width="50" height="50" relative="1" as="geometry">
            <mxPoint x="-360.83" y="1674.33" as="sourcePoint" />
            <mxPoint x="-360.83" y="1627.33" as="targetPoint" />
            <Array as="points">
              <mxPoint x="-420" y="1650" />
            </Array>
            <mxPoint as="offset" />
          </mxGeometry>
        </mxCell>
        <mxCell id="sg7OMgiajApuykTyA2kg-35" value="has" style="endArrow=classic;html=1;rounded=0;entryX=0.5;entryY=1;entryDx=0;entryDy=0;exitX=0.5;exitY=0;exitDx=0;exitDy=0;" edge="1" parent="1" source="sg7OMgiajApuykTyA2kg-12" target="sg7OMgiajApuykTyA2kg-9">
          <mxGeometry x="-0.1327" y="-10" width="50" height="50" relative="1" as="geometry">
            <mxPoint x="-410" y="1520" as="sourcePoint" />
            <mxPoint x="-410" y="1573" as="targetPoint" />
            <mxPoint as="offset" />
          </mxGeometry>
        </mxCell>
        <mxCell id="sg7OMgiajApuykTyA2kg-36" value="1" style="text;html=1;strokeColor=none;fillColor=none;align=center;verticalAlign=middle;whiteSpace=wrap;rounded=0;fontSize=10;" vertex="1" parent="1">
          <mxGeometry x="-423" y="1548" width="20" height="16" as="geometry" />
        </mxCell>
        <mxCell id="sg7OMgiajApuykTyA2kg-37" value="1" style="text;html=1;strokeColor=none;fillColor=none;align=center;verticalAlign=middle;whiteSpace=wrap;rounded=0;fontSize=10;" vertex="1" parent="1">
          <mxGeometry x="-422" y="1510" width="20" height="16" as="geometry" />
        </mxCell>
        <mxCell id="sg7OMgiajApuykTyA2kg-38" value="1" style="text;html=1;strokeColor=none;fillColor=none;align=center;verticalAlign=middle;whiteSpace=wrap;rounded=0;fontSize=10;" vertex="1" parent="1">
          <mxGeometry x="-423" y="1622.97" width="20" height="16" as="geometry" />
        </mxCell>
        <mxCell id="sg7OMgiajApuykTyA2kg-39" value="1" style="text;html=1;strokeColor=none;fillColor=none;align=center;verticalAlign=middle;whiteSpace=wrap;rounded=0;fontSize=10;" vertex="1" parent="1">
          <mxGeometry x="-420" y="1678" width="20" height="16" as="geometry" />
        </mxCell>
        <mxCell id="sg7OMgiajApuykTyA2kg-40" value="1" style="text;html=1;strokeColor=none;fillColor=none;align=center;verticalAlign=middle;whiteSpace=wrap;rounded=0;fontSize=10;" vertex="1" parent="1">
          <mxGeometry x="-370" y="1546.97" width="20" height="16" as="geometry" />
        </mxCell>
        <mxCell id="sg7OMgiajApuykTyA2kg-41" value="0..1" style="text;html=1;strokeColor=none;fillColor=none;align=center;verticalAlign=middle;whiteSpace=wrap;rounded=0;fontSize=10;" vertex="1" parent="1">
          <mxGeometry x="-241.35" y="1377.15" width="20" height="16" as="geometry" />
        </mxCell>
        <mxCell id="sg7OMgiajApuykTyA2kg-43" value="1" style="text;html=1;strokeColor=none;fillColor=none;align=center;verticalAlign=middle;whiteSpace=wrap;rounded=0;fontSize=10;" vertex="1" parent="1">
          <mxGeometry x="243.78" y="1444" width="20" height="16" as="geometry" />
        </mxCell>
        <mxCell id="sg7OMgiajApuykTyA2kg-44" value="1..*" style="text;html=1;strokeColor=none;fillColor=none;align=center;verticalAlign=middle;whiteSpace=wrap;rounded=0;fontSize=10;" vertex="1" parent="1">
          <mxGeometry x="-180" y="1582" width="20" height="16" as="geometry" />
        </mxCell>
        <mxCell id="sg7OMgiajApuykTyA2kg-45" value="1" style="text;html=1;strokeColor=none;fillColor=none;align=center;verticalAlign=middle;whiteSpace=wrap;rounded=0;fontSize=10;" vertex="1" parent="1">
          <mxGeometry x="119.99999999999997" y="1566" width="20" height="16" as="geometry" />
        </mxCell>
        <mxCell id="sg7OMgiajApuykTyA2kg-46" value="has" style="endArrow=classic;html=1;rounded=0;entryX=0;entryY=0.5;entryDx=0;entryDy=0;exitX=1;exitY=1;exitDx=0;exitDy=0;labelBackgroundColor=none;" edge="1" parent="1" source="sg7OMgiajApuykTyA2kg-3" target="sg7OMgiajApuykTyA2kg-5">
          <mxGeometry x="0.1895" y="21" width="50" height="50" relative="1" as="geometry">
            <mxPoint x="21" y="1730" as="sourcePoint" />
            <mxPoint x="-140" y="1630" as="targetPoint" />
            <mxPoint as="offset" />
          </mxGeometry>
        </mxCell>
        <mxCell id="sg7OMgiajApuykTyA2kg-47" value="1" style="text;html=1;strokeColor=none;fillColor=none;align=center;verticalAlign=middle;whiteSpace=wrap;rounded=0;fontSize=10;" vertex="1" parent="1">
          <mxGeometry x="-200.00000000000006" y="1642.04" width="20" height="16" as="geometry" />
        </mxCell>
        <mxCell id="sg7OMgiajApuykTyA2kg-48" value="1" style="text;html=1;strokeColor=none;fillColor=none;align=center;verticalAlign=middle;whiteSpace=wrap;rounded=0;fontSize=10;" vertex="1" parent="1">
          <mxGeometry x="-30.00000000000002" y="1670" width="20" height="16" as="geometry" />
        </mxCell>
        <mxCell id="sg7OMgiajApuykTyA2kg-49" value="1" style="text;html=1;strokeColor=none;fillColor=none;align=center;verticalAlign=middle;whiteSpace=wrap;rounded=0;fontSize=10;" vertex="1" parent="1">
          <mxGeometry x="269.99999999999994" y="1560" width="20" height="16" as="geometry" />
        </mxCell>
        <mxCell id="sg7OMgiajApuykTyA2kg-50" value="1" style="text;html=1;strokeColor=none;fillColor=none;align=center;verticalAlign=middle;whiteSpace=wrap;rounded=0;fontSize=10;" vertex="1" parent="1">
          <mxGeometry x="-190" y="1544" width="20" height="16" as="geometry" />
        </mxCell>
        <mxCell id="sg7OMgiajApuykTyA2kg-51" value="&amp;lt;&amp;lt;Entity&amp;gt;&amp;gt;&lt;br&gt;Task" style="rounded=0;whiteSpace=wrap;html=1;" vertex="1" parent="1">
          <mxGeometry x="-40" y="1416" width="120" height="60" as="geometry" />
        </mxCell>
        <mxCell id="sg7OMgiajApuykTyA2kg-52" value="has" style="endArrow=classic;html=1;rounded=0;exitX=0;exitY=0.5;exitDx=0;exitDy=0;entryX=1;entryY=0.5;entryDx=0;entryDy=0;" edge="1" parent="1" source="sg7OMgiajApuykTyA2kg-51" target="sg7OMgiajApuykTyA2kg-4">
          <mxGeometry x="-0.1805" y="-15" width="50" height="50" relative="1" as="geometry">
            <mxPoint x="-50" y="1480" as="sourcePoint" />
            <mxPoint x="-98" y="1455" as="targetPoint" />
            <mxPoint y="1" as="offset" />
          </mxGeometry>
        </mxCell>
        <mxCell id="sg7OMgiajApuykTyA2kg-53" value="can be done by" style="endArrow=classic;html=1;rounded=0;exitX=1;exitY=1;exitDx=0;exitDy=0;entryX=0.25;entryY=0;entryDx=0;entryDy=0;labelBackgroundColor=none;" edge="1" parent="1" source="sg7OMgiajApuykTyA2kg-51" target="sg7OMgiajApuykTyA2kg-18">
          <mxGeometry x="0.4054" y="33" width="50" height="50" relative="1" as="geometry">
            <mxPoint x="-20" y="1446" as="sourcePoint" />
            <mxPoint x="-92" y="1373" as="targetPoint" />
            <mxPoint as="offset" />
          </mxGeometry>
        </mxCell>
        <mxCell id="sg7OMgiajApuykTyA2kg-54" value="can be done by" style="endArrow=classic;html=1;rounded=0;exitX=1;exitY=0.25;exitDx=0;exitDy=0;entryX=0;entryY=0.25;entryDx=0;entryDy=0;labelBackgroundColor=none;" edge="1" parent="1" source="sg7OMgiajApuykTyA2kg-51" target="sg7OMgiajApuykTyA2kg-19">
          <mxGeometry x="-0.2226" y="13" width="50" height="50" relative="1" as="geometry">
            <mxPoint x="-10" y="1456" as="sourcePoint" />
            <mxPoint x="130" y="1300" as="targetPoint" />
            <mxPoint as="offset" />
          </mxGeometry>
        </mxCell>
        <mxCell id="sg7OMgiajApuykTyA2kg-55" value="has" style="endArrow=classic;html=1;rounded=0;entryX=0.5;entryY=1;entryDx=0;entryDy=0;exitX=0.5;exitY=0;exitDx=0;exitDy=0;" edge="1" parent="1" source="sg7OMgiajApuykTyA2kg-5" target="sg7OMgiajApuykTyA2kg-51">
          <mxGeometry x="0.1956" y="-18" width="50" height="50" relative="1" as="geometry">
            <mxPoint x="20" y="1640" as="sourcePoint" />
            <mxPoint x="-72" y="1393" as="targetPoint" />
            <mxPoint as="offset" />
          </mxGeometry>
        </mxCell>
        <mxCell id="sg7OMgiajApuykTyA2kg-56" value="&amp;lt;&amp;lt;Value Object&amp;gt;&amp;gt;&lt;br&gt;Operation" style="rounded=0;whiteSpace=wrap;html=1;" vertex="1" parent="1">
          <mxGeometry x="70" y="1305.42" width="108.61" height="32.29" as="geometry" />
        </mxCell>
        <mxCell id="sg7OMgiajApuykTyA2kg-57" value="" style="endArrow=diamondThin;endFill=1;endSize=24;html=1;rounded=0;exitX=0.5;exitY=1;exitDx=0;exitDy=0;entryX=0.821;entryY=0.032;entryDx=0;entryDy=0;entryPerimeter=0;" edge="1" parent="1" source="sg7OMgiajApuykTyA2kg-56" target="sg7OMgiajApuykTyA2kg-51">
          <mxGeometry width="160" relative="1" as="geometry">
            <mxPoint x="58" y="1355.72" as="sourcePoint" />
            <mxPoint x="30" y="1399.72" as="targetPoint" />
            <Array as="points" />
          </mxGeometry>
        </mxCell>
        <mxCell id="sg7OMgiajApuykTyA2kg-58" value="" style="shape=stencil(lZ3bki25jWS/pl6PBe/kc8/0f8hMpZasNSpZqXoufz/kaDL3LnfmgvJNdQTfGREkQVwcwE/l3/7x5z/8/eef8vOP33795T9//l9/+eNvf/6p/Lefcv7L3/78869/+W3/r5/Kf/+p/Nuffvn15//49Zf/+tsf//nff//DkTz/63/88j/PL/zvf+Jy/dHaQeXn//zzX9KP5/l///Dv/5T/61/+9nv5MkU+NZRPj8iXAvLlx6giXxfKlyHyfaL8k0V+JpDPP4a+76oo337//PnHQ8+ff+RH5DN9z/3nm8hXev79OVS+0ffZy7NEftB6pR85ifyk993bq/xOfi8Ive/zYzaRz/Q8z4/eRb7y79ch8p3W9/lRssjPjvKyvpX3w/PjmSJfYH3T+rGWyDd4ni0v37P+mPC+W378fr0aPv+Wl/3WfhT+/TZEvoP+OfL6+8Hzt9+vV/+R+HvWJvL/X8F8JS/6sOP+2fK5ivzi50m/f/7xI/H6PlXkawb5+WN1ke/0vvND/b3k8flNfv5I3/r9+aPCeT/yWeQ77c+p+3//AP++6P/F339+XD8v+Ur7eX4c15c87v/9OfT3J69vkft9axh+gVwUkPmLpqqAxp/0MQDdwWnoGqf0cSq+AsyqgAy33gaMoYBKx3h87LI3AK7bBiQFDFqH8fER3wC4U8eHIfAJyB9381eAUhQQvLRujYzG1gbIZZbYOkhbGYq1WD5+4ivA6ArIpF8+1fMbgAyEDWj2FzotXNcbZwOCl5YrJ22jmVa6m827jQR+JLl0NgB3a9dbZwMmP5KYdWnbCbQOTe+d/S/kGByA/YUW/AUD4Ds023ydbZ1maqZH76BqprO1to2hogBUlU2vh3MG6Uw3UwKDD1D7kewvNNpLnwbjG2AEgKwA1HxVbYZzJ9GZrrZw88Pt+Qqg6n7yAaofXtYbYPBfED/kWHK00tUu9sXqvpoSWGxaVVu4xbZt+TAF3wB44opq7+P+0MVe9BY9/hW9dPmwft8AeMd9Xh9vgE57qaiqPC4rHaCseun4xLQ1LASRA2sm6+YLgigbIHvphA34HdJQALphHrbIvL2TqsoNSPQOyV6aIyMboC+9rRnafOnD8n8DTFICj9qtG7DoHR4NfuXCiuxR4+TEw+gdLHyxAY0ByR6JHKz1sfnf5Ok4LDvRFQNCy+JTW6/BC6wPM+RNnrbF/Lhf3+TJzJgW76s/BjzP/HjaN/kJh3mov5rbR0T1C3l9nvah97+QF5v+BGzgfftHuOtNvsH3NFv1BHhg/5gheQI88PvN9s824+B77q8hz9/xe27bYqg87bdPw/pNnmzz+qHK3+QryBe1m0/ACZ6/aDxiy1NAt6gzclYc1quoOXgCVJRA0Hjl2YEUkDYTgc3NbN9/cELg42Z8k8eA7kc481N+oqPzGc5/kyf7On+EJ9/k8e62/RAEwD60zZs86R+/hxcHUNVSPhqbLhi7tj8jvF/I16LyGEexC299mCJfyItlUx4OWH7cVm/yBX7/UX2y5el+eT5O35s8ORKP3r8loUn9qD7f8rQ/b/IU7bvJB88v3zOjPXCTp4TJTT74/iZPPo3LF7Tub/K8f1y+f+t92R5zeQ5G3eTJlfb9WdHqftRbKkHCys5jw/2TND+35TH+ofGSLY8GtDqgWx4DAR+326d8Z5dY9eeWpwTyp2P3Jl/xfcUe3vIY87X16pwwV/u8jI8V+eo+rSpPCa6sUfEtjwletSe3PN2P5pyXifejef9bnuzDovbAlqd4RFH7tkz8/mbvlYX2bdH4+ZYne6x8aMs3ebI/qyaHtvxi+/n3v18f3D9Vz+OWJ3+w6n7Y8rR/qtpLlcNBVe23mlBfNQ1CVL6vm/pfW57Oe1P7uSbcb03v9y1P9nPXeELNmI/s6u9v+Yz+Y7ffr3B+LeO05cl+HpfnX3Behn3/grnL7d0slSd7ZnzcJm/yZI8NtT+3PIX6pvJ7tvyE/TA1jl2Z8DKVX7LlC5zfpcmBLU/vu9S/3vID9sPSBEr9jAB8Fb+S79/QXloaI69B3uvR+PIGoEP4KCNlA/DGNsrUBiCnw3yY2jlhmWwROCjiwdwNaBz9FTdpA2iZPYK9ARibzep41sGO4bYMkgLIsj+JgakAfOlid9/WBpyrkHDxBqAzXEy7h5k1VY+T+V9+H4eZNT1wkx2Cap91YYQqNU0BbUCQ1m0GCNK6kn/cAHQKPs/XG4CinIdTILS9IFHWNfWwAZgdHOpobQCmT4ZGzlqQKBtGDUzMKRgfVKg3AJFFT5r4UQBmB6e9Q+KXnmpObQCmRKeeuJZ5t64P8+kNgAG39WFPvAFaQKFsCkDduj7SYp+AwqTyx9ahoBOS7Y7bALJqnRa8AYPcNMvdbQCpymzZwVY/QuNfAcQybJ/c+q8Aupc4NXV8dwPQ/XCccQOQ8XO8cflKjV86qzm/ARQuytmUABOEs127G0AMyZPEle3dkTLjKYwNyJQyKHopto4xo5PELQpAFn75yMG9AXDhip2HwSfO/PgNoPvhOPKPAoj2cypFmgLI88+fjsInYPI7VLsUJ+eSqtpLbaLmy5/n6xOwODtUbfMtrm+oSqTYACwAMTbVBpBV+covvwEGvUNTU7pxiuWVkf4A9Af9hxPEeBRAd9wBdAVgGVHTrbEB5BafrLc9El3sByCFAkGlVVNFtgEUCTihmEcBlBrIZob2xMU7xpDs+UO1fQkYCsDd2tWq7ByOycZU7YGtYQGoDSA/7grAErauimwDcPPdAEQsugAqB539HSoaulcApVkvAC4UugKoUuIKwAvFv1JDF/8C6MxNuAHI8TuArgDUGg4Y4Wc1AEUdLp91sNboSurvAyOCByCKbCKp/2iNqoBI8y0FUFDwAKYC8GJvek/3xXWLTeOynXkQF3W/uFLTuOEbQIEQv4HGE62D2N4bgJrvBghsDQfgXmpaXDESa76m+a0NoIDUMR2mAtDLMmtmJNbelsIZObIE5MSNHBm6WqSX2T2uGnXYgMBYH/ZIaPPVj9/7BBQMSJ3E21QAVvJWrTzdAGJiZuPobwDeD1VtvlG5WLuqi78BRJbMVdliG4COX1Xbe9RoHYRfORryqnNR3boBaDoUW+nGoZaiKZfRIudVOF2DOZknKf4ogEiWudiJ62yGZjtxXNd7whTyWQcrsqyJzQ3AS9GYjSNgThq1cQQeu3EVN2ARIKnDMQLyZLL7YSKb+QTVugKIznzCdlMBGF9KSljZAIwvPRouGgsZPQeQFIBq5tHYzAYE0VAh1W4ArvRjynhhSZbHW+cT9T3o2QBknDxKZJoPJtbPSz8GCL6SAVDN3B4JA4O3l6bk9wZIKP4AuF1FtXWgzGt+9ADNh6PSj15ZB8ArnRzAf0EoQcE7pKWcmuArnYTF/OY6ZAfwO/hLB30u5ExvAEXh0tJk8AFQqnapW7YB5HAcwLKX5kdKfkT5L2R7JMz4WTeNGRQQrg/y0Lsi40dSEy7gjy89cQfAj6R33MJb9FRhujJmgNoaK2o6ojYfq/u0NMcefKVzppsBAq1hyvjhG0gCg/GF4gCMSj9q/sz03UfKWOtwAKLImBzl3YZm5/Zcrsgm0vHyo+dhhgsnZugKOmjZpbgKW5VWNbkqO+BmL63GpkNSRsgG4FdKH6HMNwCmdZLSlFdjbzdpFn8F0VArbFktMtblxC2ulDuWcVcA7takB2gDMFCePlzVNwC6lkY8W4Fb5uswWAkkDUitwTGypJbxBmAyONluHZEvKpnXDcC0TlYfaAVKIKsSWJODOVlZrStwy7KmOddEkorz3jcAef5FU7UrzO0+9g4Yq6zawWdNtAROnK8agNahacjrADg7IMSCtfjKGpo9Xou3xlCnaTHbLluDqrVYGS/b3ouPqJWYB4DyqBkaA+b3AFYVFAHyZR0CgN6iAcDIpDFA9VIA+Ew5vgOoNKVpqGVx87VTWtUVQHqpWOulAwC9VIz+v5gbeqqH7B1I85VpWmOhP12WXYohYNpLE6BaECECJFOVIWAYAKtysrXBW2gv1aIO+FpYF3LKHOxMU+y+VqW2rYUXezVmzgFQaVTTEPBinnG1vl+LuT8b4FuD+K11XBQZlkfNi/am+qJqDNoIYIGQGLDsiGLJk7FPY4BvbwRYVeoBwEofGrK/NAGyZjhiQLPzEADW996haGwmBnRfOAJUjTrEgPq9z1qVgxUBrJ1aDGjfBazvfdZ+294M0B6pAWBcrqwA4CYcAq5qhgHffGmLhsYAdTgY0J+LsU5aoxtnPdDe3Z1X5px09xS5W8cGuPmD7YKKphPOPU31ntZ07gDgBupG6g0ssm58jQMAl+bFS3u3KuFi710zr8fQpXUYNx+IXnp8UCH+RWO9T4tgBYB1uVACwPiW03TIR98F+MWOgPTNrzSsijBYh2FZ/Ahg7QUPAE7cBrglgICqtWUx4OJagiIb1gE0BrgPFABcCeA79IutEQDc1kCAFX5HgHnzdmlrzItbFgBcGeMjWfF0DOjf+qzTcigxwK+sALD8KxHAY/ch4BIIIUC+xZdg4Tbgsr2piWFRptpiuuq0ap0gkrgBzWOVcCnOZm7ZxMZ+0/itJ0ALSmD2S/iUsgPToz8TLbIN0AM00cCa4xKVxm6Sw7IDzGSeVpG6AWT+bIDecRN593NZ2G6i+TMt3byYtLUeu0V5SMRyJTAxyLysi9qaWOO3kt1AnENZSRm0BwCbb9ngnw0gqucG+CORO7Dc9h64+ZbRJDeAYmSrXB6J4nyrXB4Ju31U8xQH0lWXcXQXF0ws99g7MkKW1cetzh1um10oHZk5y8qsNoCSX6886xuAotL7/1bd2jHpsjwwyD1C1rCLnbuQLLeXOAN+NnNXQKZ3GBamqLzS1itnAwatw7TdWpGIuabFjINuxtOiPwWZOa878w3QGaArzaX1a2pHsw3AM23Es8UtkV4ZxE9A5pdeFuzPvHDLNB/3RFjLwhQZKYavvNIbgIzE5bZ3wmTwFUCMwSuAsgNXAPXeuwLQErgBiAB4ATysl3wdmCZ5BVCM7AqIvlJTANGG19KuC4upbctShJMZg6+wxxuAamle7sUbgFJTrjUmpwiPXnoUEKhKCbVMpi4sG6012aU56j4rgJJfa6gfN7kBwTI2xZxYzbmGmj8bQO0Ql41omjxsZXUjJg9uqGYDlI6Tw7aGxGZmYIZagelkDtayWssNoHjrMUUMgP5Ds60RGIlWgTc7X1kWhdsAqttdVWP3syNnfd/KwwB4T9uwle3D40sXY/Zzc5dlvVomF6NtgNahcHvflbV/4QZQqOX4cfKVKvJbl2VeN4Cafy1r2T55eteyHuwbQC7+sqbDMzBDrav6DKZ2JLtQmNR7rvGmALynH02vnSAYbW+bnbIB+JUs7b8BUVxjKQDv6UejcDNzUG1px7MNwOkjy84DG7pzadp/A6j45lzjVQF0A81leiljDcf0whVuOTunfSUeEj3ddEhI5ZlTY2Qz4T09bQzMTBjyOrR8ATzovE6bgTl5cMAcSiY9JUoUehxKjpg8W2varJmgPu5csgagA3QuWSkw5UqXc2daHQpdu7NfynvI0J1dQ8CDDd0TxjYAHqCmQbWx0Dg5l6yXsNLma3opbgAVG5xLtikAw9jN6oG4Lfq5Ar2UmBMW+kgDW69sXS3X7uDw6bTuqmNgTOB1fbwB8B2yBqRGx9rjmdUS2AB8h6yxyg2gKvMN0PnUnTNNli0bDat1pteANz5xXgPOLZan1aGMxmrmMTVTOZf1KIlxcNfqaVyHUdHWmI9pjYLhomGmwyh4pofXKXJgcFij0VGwjn0s601RsDrhaCHrc0LrcFLmTQFk/gyL6A5uP//qgPAGwHcYVoufeCDcsHYZ3OZtDGtxkPA8DLt2R0L3eFgT/Q2g6Y7DxjYHfX9Gt2YWPGT8qK2mAPJ2DyOkKICu3dGV1TIevHaH9+fjURjD7unOtsZRjNalilya08olKwCnBTaNzXRucDmMPNe5COqo3qIAcvxOw5usAHL8RlWtsQGZAZJu7gPJERsgmu/Fv/sKIBmODaDk17BEaudu9MNG7R4OIR3RopZx73xELRncuWfOsHBR57a4w9ri9o5e1rCaptPQj86DTdvpnbW39ezvjb+SRbA650VPI66iAIoZD5tgtAE4QcRqaQ7jlUmM4uJ3bjo1jOvQOeQ1bCrUBpAvOqyz0AZQu72RNHzaK6+00cI6B6SG1R5vAIXthlVon76htA426+ywp2kvmd3aM3baGo8pgWA6jlX7n4avtA5Gcj8cc7rjjCzUE8bIxqORk55wL3XrBtM5mNON8HRa+xJ9e9nFzs2Du9nenc2fvtTQ7dy76HSnnAoga6b7GIGFQYRjWXQFUIvlbmnOxm2tukUS2+JZUcYTaMyr7JYXbROzZX3phdKYMdgtkdo443fMqakACiL0qcZ640BIt/Bp40BIN7escau6Pi/d6CmI0I0Gc2qQ+KUlw3Fa8Af1D/YXyHntNviqcbfhK4DcgSsAz8MNQOXQFwBf7FcATve+AWiMwBVAvJkLoPBAuhsg2N66Nfjavf4Fsr0vgIy2xhWAVVM3AJYoOSCh6XAFEBv7CiAf6AogbugF8LD2vgHwyroBqI69Ww1He8LtLRO5FhKTrwA0f24ArI+7AfAWdQB3UrkCiKl2BVDI6wqguMYFwHzvA7BxcOQOdGP21xGtg9hLlbnS3SqO6kAf6ABseCHFjE+cRGavFSRHHIC8dKBmhs1H54zfq1n9JyBYOJsqVthj7zaSsxQukrUQcEmsNYbGBAoPa+tD80CZp+r2oem116DLrwBikeWg0Nc6R+TAWB/Kq8wcejwRsd9/1syTAk9EzABorFt3pBwY61a3mwNjvWvxfg6M9a4nLgfG+g2AxnrXJGQOjHUHBMb6DYDGetcavw0gltcVgBZZV7105jWQErBSsdxYCXTNDmTOWm6AFHK9Jjd9BRAv6zV96ktAUwC2B7gBKArXuxIxM/PIuhE8conWQQ9QqIwlvpR5APOZr9IVgOaPq8ocXllJAYEpLRf7acBH6zC1gChzOYP7QJnDdieI8PsrK3Mb0L5Meyf2gZZGdE9vRgYseyRMulhw8/SXpGio9cE6HSw5Zqz3dOKcYtZ8XGaXxhMWpxsqbI2TdGkKoLISz2Vldpo2QPcST5IdxpU+fdE5CSl5oBxkj20+0Gljy/lpqV7L3KP8Rdx5AxAXbrj5w+3rN6AbgOofxlRi8mnrzOSIZgAysIbFKtPiHMrSE5fYeX1NGXgDIHPTBhWkhTyBaeMcEneDmTbLPIXV/hLGThN9oA0Q0yFxK9NpZzrx0IsXWfsNQGmdQzhPCqD40iHNG4B267QRj2lEJEZx/DYAWcBdE3hnInVAJh0KQOKZFckm7jY8h7KxU2eCuDngG0AlSnNqb4oNoHTz4UobINPWsEKu1JltZ1maMz+dvtLSqtrXhPavANJRP7WoxYHu1sb1D4/2DU0Vr91TM/goAIszH22xnCqGi07BxFRA0HVBiDaJKYbLRuVsALY4SJoiTIXr45KaDokphqck9lEAFRuspPGllLlaJ2sCbwOwDsXIESkoJc6mvTOXlRjBI/EQ+lP83BUQvIPwWxNP2TuAoQDs4JE1p5geri3LamBtABZnWruMFNTtWoPL9KAPtIy+HVThFmtXyYWT3iuMOygUa1eA7szpD6LPH9QDCrdjYjbx1A9KYQ+XQBa1Difez6uoJca8v9MpQX+fwuOnYFIYoVwZ6xUGaKueVg/CwOY6cWt3ypS/VY39xs9vE9s7OtxegdpZSVSjjaF15PKNKzGtuUzjhgkXeazDtPcNilUvv4+1qlbSEvQzMVpqxTDSsvGVlfVJ1ZB+5dpzky+sHy7ylJNY5oQUzJIs6+Bdol5DUgXLbDrfnznab5peiPS/lMDy1NdlDZczl83bhZejWmoNikRVxRqg5qr8pPVTHINcn4GrN3mu3832POT/LYvIczmXOTaZXd6pLMCgUNaSqZxLnUP1Q0Kq/uyaJEyRB65eE1evNXOa8Lyc4Vhd5bn+Tq1W7hdo3O2E+mdmf34MOCQlbQby1lY+lNfAElPPl3+fQP4xeQqPW8/tQH6ofgvlNRjI8l2ruAP5Zi5GJK+xFZavl+/P8s+3nqf4fsMKwKz2aihv+gTlk9IaQvn0LflHK1RY3hNEobw65izvkbBIXsMjEfvmW9/zMCy+s14n3fud87vlkz4/sulsvFXihvnNAoXo8XebGJ+Y7mH+DvdLO/Ueqk+ofG/L236m4tRTi2HPQ8/viQWMrvXLeURSaVJ/JDE/2SOQkXzR80JT3E9Bgu63QL7a+/LMCE0F4fNveQ2rRfISzwnkh59HfP5xWS+aSmNNQBP6U836K3O7wGZ9vBJWr7am9nDC1N2ZtaLrS2ytVi1YjGyWLZ91P1A8rVkRZ8J41JbXvAYGu30CT0L6f8vqX3PZd0vuX5D/1ZJyZhP6X816QCWMN7bHzy/FlOvlfqc4erWiqkB+aryOm1lWK1JJmFSqU9unMVmk2hSdhP5jvdgDFD+sRmHjFkVbXuIzD+aTqrXt416f1eZOPNhZodq0J25KUIvqB67iqxY/f5B5XLPyvriD05Yv+jzUMP9M3esqT8+flGD+oL1XH03yPGi/VRsGwTygsvQ+fTAeW6xxGNOGipHcmDVUhrJKH8xHlKH65EH7qhgJ9cG+mGe6pe5nsgdKu/w+7P8t779P62Ucjwfv92LxHG7hcSaS6v4kDla5nEfKRxQrxX949qdldh9kkhZj/z3IQtjyWZ+H7A0fUxvKm/7Eed5L7/dA3lqN8/c56Tp7Hthv2Rq+837Iw/UnlWFkIyPzecw25ov1z0lf6fPTwIfDMNfvQ/o/V/cXKN9x2N9mr8L+f6WL/jV7NVt+KmF+M1t+jbuLH2652p84tbwYeQrt21wu9nDw+2a/0fex53l42re974P5UP+ebF/5ej3IZ8g2ADqUb6qfcX667We2J0/60+x5fl+LV5A9f+TN3+HzMnT/k/913tfOC38fZdOG59HOL39PsQ/D30/mn/LzW34Bv0+5+I/0/cvFH6T1LWrvhfvn0fs62J/fk7deW2y/ZWsX9mA85NRI6XlEfdv991F/Dt0P3O01W7zrQX5Onpov/uy3/C/bJyh/sX9oP9zsq0De7Fvy34vFY/n7lKQcO24Bc+xbkyd7O2v+/cHzVYrfL5RPLxZPezD+U4wf8mB86fgvur4Uv9r+UbPfD/wv3Q+k345/p/uf+DbFSj25J1AxtvmD9l6xHtUP6v9i8fAH45/FRi4H/pRVhLG/Vp+Lv0bxn8fjJ+Sf1uT7mfyLak3NuL/2if/o+pK/f+JLdl/Q8xufk+MV1fhIHA+pNon2wXxWtb6MHJ+pNmv9wXxctfz+g41Wa9f8chDvspKuB7tEVqvoepDfUqffpxgPnH5fE9+mXuJpGJ9c2h3lwc7PJz6v60Xx0va4PiR+UUtqTz5YvtZsXDrHh1v270P8qJYvv8/5I3t+8o+2vH0f4ls2s4c5nt+q83nIXmrV+TNkz5zuVd/xl5v1z+V8TTP7lv3300LM/DV6/u78N8x/WTyKq4e3vPuP38wvY77vkr8O5C0/jvKX/Hsgb/l97HdjTdVDeePnoHzy9SJ77PArLH4F+6ebvc3xty1v+WtsYWf1IIm7aBTluyaM9/aq8WruQ36axNrvM/9HK6nQHjv8IuNvMN/Jvg/lO7xDR0L7rdt8lKAB2oXfRfbejT8WyNv+D/pvWrwokLd4Cw4UuPD3UP7CDwzk/XuS/IXfGMgbfxLlL/xMlL/wPwN545ei/IW/Sv7CjR+L8hf+Lcpf+L2BvMV7Uf7CT0Z5s4dDef/+3+Rvk/9144ej/IV/jqXf+cKHZHnjO2E9fdEp1cEULm86wLPNmutzLBNvzufBrgnd9Uk0UMv44fQ8F/4P1i9M54tifcTy+4j8x1P/ot8H6wcv9hiWVj/aQyih/+hTChP6jyu5fsAaffPXeA7dqbfV70P+2q2eC2vVLf8S1ENVa0QV1WNKLXzmes9mbah4vSx/UaIhq3IfBYPHL/I4o9jsycL7wfRJ5bp8e9+K9q1/z8r1gFX9r4r8tyOv9bM4orxqfDKsb5XzG9bPauPxqF5S+C0tqifVgTxcD1hVv3Ver2qjO7iLguWvO5+XqvdjMJS42oA6rve3fPGI6ruFPzz4vFh+efJ5qRovncj/OfLaTyCqT5fhqGH9u/4+8TGW8TEW1xdb/I1bqp5+AlXkcf8Uu685Ibfc4ecMzDKG7AbgESiaskkc8z09HcQGYhL0KhqETsxqWMU68bAZfdpe2COR3bRsDuRp6MLvoI5P5psvG9Mo89VnqdoU3N3Zupzx7L6VrVi3RNXk6m0UXodk5nrYfkjjHUFDgmQFXjWqWFcPt3KPGStxT5WnvFtOI3GTV5+bnRorgcesXp4vtR57h7Adl/LuwoZfug48qf54NkMBOJR3WWqgs29p3JHE09CufdQoG7UBxR4pmAitSmBwT75hqnJwgGJY76vBHmy3lx64W2e3kB735JnNOK4TSZ8nKDAUQFn66VWkPJxgAzTtMrmvQdG8bNwQUolvCy35Mye4KoBSBTNb6GFhLeC08WmnkyePzNUbaPFXeux+4EkAwxsGM59qLO3ncAg6wXzapADafCfiaAC62IeNPwg4JcNiTFErXO98HnTn7dbYn2kNoymNJmpJ3LRRbZAoH0asDZjQZ4CnvTRO/DRqdlCLN6z3SFCseBo3W7dqnGWZrTsRl6+e9IcB6EyPZP2MEu+lR92BzBX947HGzRyS68v6wye8FPvSHP4JmnHSSvswZ+5xv2yqRNiMXVul56gvhDeUx1F803p6l2jajWq+gk5Tt1K4XKJcpo4/KFjsciaU2DvgSw/1FIPw3JlQshSAK30D4LyEoQW/ufJ0j6GWQOa+s+crZQVkfiTtQN+iOS6qvRv36beqrGj2xg2AvIRhfb6C+SE3AE4ocUAwA8W/UjBl5QbAOS6W3IwmxQxle0ezaG4AHBJxAwTvoEpgYtTBhzmdmUB8RJcBgrl3jwGCyXqq7hePi5o2JGJFQxfFB4qmP011aaL5UjZJrBTuRDP1UoxmZE2lEpfBKz3Vf4jmfFkzhWiSmDng0awyG3NaWzT8Unbr6ZjAxokUANXBR3TpSp+ZcWycSGxmA7BH0dIa3GjunQOCyXo3ANLEbgDsy3QD4CAkB4Rzgh2As/tugGBItQNwDqQBokmTNwBqjRsgGvBsgGCasgICRuYNgGboDYCjlm4AVDMOCCav3gB4Ay2dWxFNj3VAMJ/2BkCr8gZAS8BfOpji64BgTvANgLfoDYDq/gbAi90BwbzmGyBgXDoAZ07fADjV2gHB3GyfI9+j7S2svDP7m/+CztjlPugnJlAUgA6HEfnOhHT+rFKZ0AY7HMtGqk92OJZxIThZ3o1MH0+qdwDRmQ5AFm6xA7504MgGYNRhadThlBRQFO5Rxmbja3c8mgdqC82fYVHptjAgNR61vTtXjQ7riti5zHE8mnntXMc3HuWF9ofHdtksmp4wSzOsU1QPJusZtbXzsL/xaBi7cyTRZ/d1nrIyrBtPZzrdBhT7C5QSGUn7YWwAxr2TEZYK5qc3QI5oL/wOWUsMO4ftRlbHr5doYKGE7U4ZCT/SMADFW4eVwfbKfa6L8ux7ReNkGPGzc9huWOV7b2gkjqKlUxuAeSDLKW4AxSqHUXl6Q1bLsG5cG4Arbe00TsENvYPPH+mcsKhaALMB5CkOq2jsbGsMa8nyGir9FUCC/WeeLP2FppnXE7LlWZbZAKg1mtpLJ4DEgGaA4B2UGDlZa9jsvhNLoa1hrRQ6p8xHt9k3i3O73fYSz4EcXQNSnTPgw6Ypd86AD+u/+aqw+gogl+Lgjhmn4mYoIJhaKup+MAFwWA5lcFPKYYHyEWReLUA7uAzxJOUNgAs3Nenyule/AoihO3gyyVjKND/3Kh1Ra127Aag1zOF4XZNXwHxUL51bj6pjzG4dhadlPmr+jIJ7yeufRmFKVdJ462uY8VcA4QmcYcYMkBL8DSC7dSalLoyKmm8a63Ewn29mdTg2gDzFDRAKybkAeKCtcLAGE/mnDanemorO9Cza6eioZ+JgGW148OyyDRDd+prgfAcY2XuwJTCNDT8GDyGt6jQNjjpMMx0GRx02QAn9HLufNrFhTB4Gaxf70bb0SNajYXBOcXYNSA2eKjitq9JRz98a+zs4rrEB4nCMgG03lPA0OK4xrbPMCNh21or4XAC0Dka/GAub022AMHMmd8/y6sbJxQZndHFTQDC6WPitZxo4LdxUmuTkDjDTqDyTAyGHZ9wUgHRVoyPNFDGZxbqfPJXEydUzoUW2Af7SeICM7z2DgbaPFepkHvtrlabnEqNSgMe2RuZatUdrsWYw3M+a+c3M0yqTxir3nUTu8TJ63uQszUrq7U4mbS0LSJ2S7aDCtisAS2OS8jXOKHq4UJbNXJtswq2sJtwG4FfKmh04dedBLU1WANneXq0za1TIleyRcBJlUW7obDxatShNcgPIwFrWi3Fy0ceqGqaYLaoe1Gm+nQtXqu2lHtULS4B2BgNureHU5KKP1ZTUO7noY3X7Slz0sboauvsixpW2pubHmKC/MOzEDS4DNgr6MSZoHYyTOAdrjaGNtk7tC/0Fo1S9rI+vAHqAOEa2Ac0AOGzV2EVzYvHNmra9J6sZK2eYQb2r5XY3AK8sa/g3g4nhVpIxOai2AcJ6nEzP24BpALL51rK9tHjw/FLtva96CvYvM38W91VOz6NFfosnb9wRFDu5Iyj0fV5jKYDMvguA+21fAfShrgAst/Sl4BF/VwCafTcAXtVL4zkr6OphSfBXqe2XgKwAvKqXFh0dE4fPkHgEK/OttdROXJy4PIpjKYAId65pFlNcl5FCXtXwXwEkbPya5/2lPh4KwMLaaStdebdO1ZavFh5f3lqiyxr7HFbAdowo0hrWo3Y1foehxJbFxcFraHZqmziojy14sgI7sWvWfHG9wbJGZ/tf0KDptjU6X0Lt8kjYm6KpNX3sOlrpZl9p8HR3656+BltA1Y7oYHfU+oMsJjNfGmwMrEc7OmIpAC/FoqSQxQXOK5tuHZjDW9m290R227J4/+K6j9MWYSmASuRWUm7BmhyeSba9A+PYJlmtiXmXZRSmA6CVfjTkenRh0IPAANgdzjixB0CBuKntmdaM+r1lB3BQt9peosTltHzwuZPoK1lO+wA4Vi5B3bWigv/pAPoLTZ2UxZn/aW2jjmMEmm9aX7a1OJJdPjbCO+BbCbPjetEj5ctnJd06k5lwCw+QF/xHgMfuhxDQ7LMGAOF4BIDhVmUI0DMdAKaGyWKAHtEQoEc0AAztKxIBLP8VA7J/Vqb/LF84BqixHgKe7z2SGychIH3vkaz7afRZi/YViQDW9eMVsPkKoPd0ALCWAjGg+EszXfryDgx4fC8xC/2iyLi2cXzrkfr1iAaV6d97h65E4MWt5A7z0hQZVoBa5v8AqKLBmlkel5zI/dbddy1M5J/29AbAGtNsoZaF7vFpyO8AnhDgWgNrJizpt4Li4EdzFovrDZpFUF9Rs68ArirxL1gb7RigoccAYIPNY0D63jt07UEQA7750sZYjQHqsYcAP9PBPBc3dANANe0dAB7ffAQoF1sjALitgYBsXlYIaN/bfNlcywCQLpYAHlHL/EcAY0rGgMv2BkC1MPZbhuErhHaUjBDT5uvECJ3YEiEsF/kvIC57nD6VRwdZ5585ZQ6AW6VaSUBwb1XrTLw4CVa91e1C+nAtl9udwrrVhrEHt/sG+DrgeDOrzwoMDp8HGAOSA2jCoichAsC8bI0A4E4EpTnKUI7oKxfzFeCxd6A2AaVfnGpiGZ3eI/ZIFAc+gz3d2qWXtrqgxWnnM5r0W35N8cBxAMg3h5QBz/cA6bLSCPAobQjI3wJkK7yOADaSLAYUf2nYrflmi+IU5m5JCI7dZeMAneggbL7cLIu3MCOc6yXeQvH47JmXhaShXC7am3iuuVyUAOWnsg1bOnFgmt5shaZB8Ps1XeM9vE5fyWOoE/VSTraXmB1/OjxaPJ6aRL4m2r0BcIZ5Ulb24ib/pzWnpf2IlnS6hSYF4Hl47CsNfulHK/E2ALfGYyEgzteerq2W4KXsUbZiqNX5ALkBzlnty0s3LCR6Da99A1BDiOxOREOSdbYS+9V4oPxjWqNhZv41MPkNQF1hLgvH5VbZr6yCVMP8mBmakET36mL8CWCHIy1dh8lVO8m6kZw227C9N0B53xXXIXnRAY8O2gBlZXNVZ1o264NnWSTrfDa5+3My9uNgtz0tVcaD/Tj/SoP9OF+HA+B10Eq8EKAllNx2Lxk3bHANcjJCXPCV/AAN9qfzoxSjs9KsjMUHmg+mkK8ASiFnK5adPGo+2Wi1ybPUr9ubDN1kjZDPI/HmG/ZZA90q7Rrmw7bGY2zgcB1UkT3IN87WkPoAyLq/AXJgnNgjUcX89aWDO67ZZ6WeLedS7AYIrBkH8Dp4JR7arbetEfyFywHiK2v5O/CFIv5DsA7nPBgguEUvuhW+UjLu+lhohiYbsDtWZIZK5mUw/z4bTSqofc0W8hrce/PsJSv47by9JWwXlBS7/zCY33ZcGnnpwTdQUuLJmdvAjp/YrWNgg5TXJNI3AMY1bNbl4GFwp4++/QUqrDvDKmWlO1vGWbMWG0D8tmwTDga3DtwArXLmTuI522fl9ocn6mC9ESh8ugESkDrtdzhyIlU7p8EP/QWLnIzK71DUtTzzM/iRtGdLZTVjU94GM92zpfLPrGtauKLKePDszmwB2qC5SLZhe6+mXV8B9ADxeNMDEM3HZRbZW05kNBJz1YzwyHweLM43Mkcd6qV3Dq6Dz5zkZjvZykAHNzfPNq/pzInnzyokpvFgq4MDsLZKqARuAGJuHUBTAIa8fHQpu5a5WsctpuecmHFWAFGys02n7TykKnvns8kXyg2ApoNxkvpE3u1rQO4bIHgHbRI5eB2adfccmF47gK4AvFBuALxQHND5PDQNhBw+Gi+cAzCSeANQc5ELoCHV6wCmAiiCdQVgcNMBNdwaBqCKg8tLV1b3DuCBmFcA2q2+l7jh6AFUBWAwp1mfvsxZGpvivQFUz34AWQHoP7iaSaEiawpARVbVdNiAIOOn6j5ht6pc1cDqPIPtAKxNcXApCutpA4iCmm28dQ/iGtU6Mj5YxJ+N39aDCJbNkWvMasnWobSF166YcI2ZCMdIXArA3K6ZoW3x9i7WGHzxVyoalW5c2LQBstIbgEfU2EUbgDZfsXUI7umiQebGo0+P45cVgHecjWR+sVi/dF6tsz6Vmh/3OCuA+Es5qzXTOtsaRn0MpgPkpM0UNoCyNK/5gJ8AbiNzIidDAZjmtBaOjVstZ6tpaIHHbuGiDQjy07qXwqyl+A9nlgUH1SQ7cLi+DJCowwYgwcPSOq1E0VC5gTaAanHTsoUr2B8uLa3be7GJ7wAjoJ5BKvRIU33RxmPWzyzirADs4zE13tq4K30apu4z5lA2QGIzjdu9Jes1GMzYeY2pfgMQPS91e4fEL93VODmDhShr2bVotD2cqu2an27c1/iMPO8KwN3aNBncHqSQJKvgb0HK3Cr4K9fHJLP56kLdugESu68L80Cp6oVSuXg3WWCwTmQyb4BUmVZuq7QB8lkrGycbIEmXyuXyKeuJqxON9ZTVy6qcf9gAMRIP753eIWk0tHKvhg2QsF3lGTsbIJ1F6uDdaky1M22PtPej1P7a0XlNlmmqHKZIli2rHS9Fq82qjZsF2czDxo15VLHWoPmKVqPVxs1GNaheeYzF1PYaW56svWkLEDTH1hrcyg1zhhqTtaJHaa1mtjz2cbc9zSMnhx1Lbp/ZNeVQC093NMVSUP1aq+TKbZqsmUPNGDnsNv8y4/vaJPma8X2bnZeMvnBTo3bLU7jXwjBnBikVtdj3TxgjsWRJZcPIoguVxyz57ZqwVUxR8ld98J4pNkH1wWvGhtZUnnxbNBxZOU1SNJhSmOKX1SAqXF2TdX8WrtDPatKVIPSiEeESUNhtzi/3rMl6pRbu02Odg8pEzkBSfm/hUTVJvdISmClqBxWmlltfoi1P593mRxQ2OR71F0vHoNGjIaAtT89vbLUtTyEja2JdGupno55tefLkjHlWmOxgbbtLQ/LcY+vF9oNN8ysVSwIfLZna8pRgt14TpQbP7/IU+HH5ggG7mzx/f5fP/D1Fnu/3mzwlBm/y5Frd5Mk+cfmEXr3R5bY8Retv8pQjv8mTPenP/6D+f5QwUh70zx/lHhXmdRoPtDBF2ByqzEMlrANU5oJbK2k5HhM+jwQLMvfhslqnvIL1Evswc/u0pOu15em8WHVX5h7SFqne8hjw1HzYlif2Z1L/6HhY5MOrR56ZBpns+3MrcqMobnnM0av9fzwyOC82KiDz0KCs/uaWp+huUfrJlqfzaES9zOkXs+ePR4b+gu6fhv5stfPYMPzd1H/f/0KxOPPv9r9QcrRpvOLFsfjCP/XnwUHRGt84b0Qdiez781yHocH+V17/C3mpa3x5oF/FQ5LK44Qdta9yxTIXm7T3Sm9/Id/t+XFOmHbbe9E+v4h36foyncWq1nJB+3BpyXHmEXhL/aMctMVW/n8uXDpodRgvQvOXIdCqALKANkCvgMyBYmuqcbQw/4Vlj4TR8WSnJuGuSDYnJ7PZl5Kd+8T3cLKNmvilrZlDZv5OMrJ95lFWnkM41hQD1DgLhhRku+25tmoDhLSUggIay7Qk7hmTLCCUuKtdKnoDnqwzZ4uqvQMmf4z7kphdk4xdkyZv76J1SRuAOeaiJy5xxU2ytl8bQHmQZM0zE1fcpKrp1sQjY1K1TlCDc8xVS3QSz8lJVZVAGkwOMFZ46rxwVbXGBhB33hO6J6/NOebHHokCksn6qiaOKF0B6OI0JV4l7jqQjLN9/oUfSbJk50PT5jOOaqqc9rYW1InHyCabuH1OCD+StElNBS3J11d/AyC7xnIvqaCtnWxEQSqs+bptvoBd0zW8/boxvgJIviBlHA6UbKb3ufVo4cwDSFxxkywl97rqvwTIOiTO9Xd1ejYAT1y3NnsJibmpa4l/ShhGOYqxKgDvB3N8jhVI7zDsfngwcpSGdwpkE25oLCsF1sywduZ8Qod1PuYbbljzFCzSS8Ma6WN927mRVZ4aNO0rX0zWyVp16s0wMVdymG/S0IDvhYs8Xm0mP5j2Nq1wk3lE0+Zy86GxXpZcn5umkdnZupia7OlsCk8t8uycK5xq/neOJU7jHUbPL+YUF/AcK1l/H2OhNp6Dc09pGbkhKuYXu4VzT8nJPXy92rwqzj05nTak3wrXtbCBbd0OStiKIIs81qc/er5y1LhJDP7MRQrW+SPj+16SARgre0UEXvJYDuDB96jTm9pnGKvPNhyAWb0n7qO/j83wsrml3FfRKjIS7x+rEUlcUls0GZ84F1D0fnz4e1YNVjxcoWjV309UaS0+9YOxkKM+9HlomNCRX9+TL/b8/DxyHh+uebBqr/B7NluvoJpsijzqE4sHPJj7u/4+7x95/sRFJKH8/h9//8Nvf/7nf/zpL3/96z9++/WX//z5/f//0y+//vwfv/7yX3/74+c//ePPf/j7z/u//i8=);lineShape=1;" vertex="1" parent="1">
          <mxGeometry x="-100" y="1279.87" width="310" height="570.13" as="geometry" />
        </mxCell>
        <mxCell id="sg7OMgiajApuykTyA2kg-59" value="1" style="text;html=1;strokeColor=none;fillColor=none;align=center;verticalAlign=middle;whiteSpace=wrap;rounded=0;fontSize=10;" vertex="1" parent="1">
          <mxGeometry x="50" y="1651" width="20" height="16" as="geometry" />
        </mxCell>
        <mxCell id="sg7OMgiajApuykTyA2kg-60" value="1..*" style="text;html=1;strokeColor=none;fillColor=none;align=center;verticalAlign=middle;whiteSpace=wrap;rounded=0;fontSize=10;" vertex="1" parent="1">
          <mxGeometry x="-9.129999999999995" y="1479.8700000000001" width="20" height="16" as="geometry" />
        </mxCell>
        <mxCell id="sg7OMgiajApuykTyA2kg-61" value="1" style="text;html=1;strokeColor=none;fillColor=none;align=center;verticalAlign=middle;whiteSpace=wrap;rounded=0;fontSize=10;" vertex="1" parent="1">
          <mxGeometry x="-55.620000000000005" y="1444" width="20" height="16" as="geometry" />
        </mxCell>
        <mxCell id="sg7OMgiajApuykTyA2kg-62" value="1" style="text;html=1;strokeColor=none;fillColor=none;align=center;verticalAlign=middle;whiteSpace=wrap;rounded=0;fontSize=10;" vertex="1" parent="1">
          <mxGeometry x="-97.66" y="1352.3600000000001" width="20" height="16" as="geometry" />
        </mxCell>
        <mxCell id="sg7OMgiajApuykTyA2kg-63" value="1" style="text;html=1;strokeColor=none;fillColor=none;align=center;verticalAlign=middle;whiteSpace=wrap;rounded=0;fontSize=10;" vertex="1" parent="1">
          <mxGeometry x="60" y="1476" width="20" height="16" as="geometry" />
        </mxCell>
        <mxCell id="sg7OMgiajApuykTyA2kg-64" value="1" style="text;html=1;strokeColor=none;fillColor=none;align=center;verticalAlign=middle;whiteSpace=wrap;rounded=0;fontSize=10;" vertex="1" parent="1">
          <mxGeometry x="158.60999999999996" y="1526" width="20" height="16" as="geometry" />
        </mxCell>
        <mxCell id="sg7OMgiajApuykTyA2kg-65" value="1" style="text;html=1;strokeColor=none;fillColor=none;align=center;verticalAlign=middle;whiteSpace=wrap;rounded=0;fontSize=10;" vertex="1" parent="1">
          <mxGeometry x="89.99999999999997" y="1428" width="20" height="16" as="geometry" />
        </mxCell>
        <mxCell id="sg7OMgiajApuykTyA2kg-66" value="1" style="text;html=1;strokeColor=none;fillColor=none;align=center;verticalAlign=middle;whiteSpace=wrap;rounded=0;fontSize=10;" vertex="1" parent="1">
          <mxGeometry x="243.77999999999997" y="1416" width="20" height="16" as="geometry" />
        </mxCell>
        <mxCell id="sg7OMgiajApuykTyA2kg-67" value="&amp;lt;&amp;lt;Value Object&amp;gt;&amp;gt;&lt;br&gt;Board Participant ID" style="rounded=0;whiteSpace=wrap;html=1;" vertex="1" parent="1">
          <mxGeometry x="230" y="1273.1499999999999" width="120" height="60" as="geometry" />
        </mxCell>
        <mxCell id="sg7OMgiajApuykTyA2kg-68" value="" style="endArrow=diamondThin;endFill=1;endSize=24;html=1;rounded=0;exitX=0.5;exitY=1;exitDx=0;exitDy=0;entryX=0.5;entryY=0;entryDx=0;entryDy=0;" edge="1" parent="1" source="sg7OMgiajApuykTyA2kg-67" target="sg7OMgiajApuykTyA2kg-19">
          <mxGeometry width="160" relative="1" as="geometry">
            <mxPoint x="400" y="1267" as="sourcePoint" />
            <mxPoint x="370" y="1410" as="targetPoint" />
          </mxGeometry>
        </mxCell>
        <mxCell id="sg7OMgiajApuykTyA2kg-69" value="&amp;lt;&amp;lt;Value Object&amp;gt;&amp;gt;&lt;br&gt;Board History ID" style="rounded=0;whiteSpace=wrap;html=1;" vertex="1" parent="1">
          <mxGeometry x="7.349999999999994" y="1766.2599999999998" width="120" height="60" as="geometry" />
        </mxCell>
        <mxCell id="sg7OMgiajApuykTyA2kg-70" value="" style="endArrow=diamondThin;endFill=1;endSize=24;html=1;rounded=0;exitX=0.5;exitY=0;exitDx=0;exitDy=0;entryX=0.5;entryY=1;entryDx=0;entryDy=0;" edge="1" parent="1" source="sg7OMgiajApuykTyA2kg-69" target="sg7OMgiajApuykTyA2kg-5">
          <mxGeometry width="160" relative="1" as="geometry">
            <mxPoint x="70" y="1370" as="sourcePoint" />
            <mxPoint x="30" y="1426" as="targetPoint" />
          </mxGeometry>
        </mxCell>
        <mxCell id="sg7OMgiajApuykTyA2kg-71" value="&amp;lt;&amp;lt;Value Object&amp;gt;&amp;gt;&lt;br&gt;Board Status" style="rounded=0;whiteSpace=wrap;html=1;" vertex="1" parent="1">
          <mxGeometry x="-240.00000000000003" y="1670" width="100" height="42" as="geometry" />
        </mxCell>
        <mxCell id="sg7OMgiajApuykTyA2kg-72" value="" style="endArrow=diamondThin;endFill=1;endSize=24;html=1;rounded=0;exitX=0.5;exitY=0;exitDx=0;exitDy=0;entryX=0.75;entryY=1;entryDx=0;entryDy=0;" edge="1" parent="1" source="sg7OMgiajApuykTyA2kg-71" target="sg7OMgiajApuykTyA2kg-3">
          <mxGeometry width="160" relative="1" as="geometry">
            <mxPoint x="-291" y="1680" as="sourcePoint" />
            <mxPoint x="-268" y="1640" as="targetPoint" />
          </mxGeometry>
        </mxCell>
        <mxCell id="sg7OMgiajApuykTyA2kg-73" value="&amp;lt;&amp;lt;Value Object&amp;gt;&amp;gt;&lt;br&gt;Board ID" style="rounded=0;whiteSpace=wrap;html=1;" vertex="1" parent="1">
          <mxGeometry x="-130.00000000000003" y="1227.59" width="100" height="42" as="geometry" />
        </mxCell>
        <mxCell id="sg7OMgiajApuykTyA2kg-74" value="" style="endArrow=diamondThin;endFill=1;endSize=24;html=1;rounded=0;exitX=0.25;exitY=1;exitDx=0;exitDy=0;entryX=0.75;entryY=0;entryDx=0;entryDy=0;" edge="1" parent="1" source="sg7OMgiajApuykTyA2kg-73" target="sg7OMgiajApuykTyA2kg-4">
          <mxGeometry width="160" relative="1" as="geometry">
            <mxPoint x="-190" y="1290" as="sourcePoint" />
            <mxPoint x="-140" y="1330" as="targetPoint" />
          </mxGeometry>
        </mxCell>
        <mxCell id="sg7OMgiajApuykTyA2kg-75" value="" style="shape=stencil(lZ3JkiQ3kkS/htcQ7Mu5Z+Y/KMJik9I9LEqRPcvfDzAUj8hU9XzIunExi3SHAwZb1NR+yH/745cff//yQwp//Pnt6z++/PevP/35yw/5335I6dfffvny7dc/1z/9kP/9h/y3n79++/L3b1//9dtPf/377z9uyf1P//n1v/Yv/M9ferk+Zt5aKfzvX/9ltkdP//9f/uMvhX/++tt7hdJUYXRQKI9R3iv0RxioEE0hkUJ+5KoKhR4pPZr9hUYK8TGmKgx6pPiI/b3CeIQKCuFRhyok+A5pPmZUhQyPtBTSVIUKj5TGozVV6BkU+mMWVRj0F57f9Y3CJIW1N8N7hYnLuhRiVoVICvVRiyqkAgrlMe2RMq3S2t7NFBoo5Eexd0CFdH2mzyuE8V0K8VFModBuDWYE5qNGVFAjMB8tfKwQnw/wVgHOQ1zbu6pCh0eK/dqbbxVgayyFbFtjwCrFZifueco/UgjvjUAM4RFomZb5tmeaYPpiudlMZPqWgjzTXib6C/mRuio0OEExXXbr7e6jR4rXsr/d37RK8eZAhAkK4ZHN3g94h2kXysDt/Twtn7T2w671fp3AD+SL3YhkJ4ctUHtU+Mj9OotP+XpdFh/Ip6LyET5Av3b9U37tW5BfT2vy5JS0R5KTmR8NjvI6mEXlI1jUavYxoW2pl7/yRp5unXrtlqd8fFSU1zO5jgR833odj6d8eCT4/aKuwpi4n8vlYz7ll/MC618ux+Mp39GtdfmGltec2iUf4fz671d071y+XE7uJ+Xzd65PwsvP3zeip3Ynf3jf9/ZqhOuEfk6+r0uGn0fk2dO8k49wHu19e8cbxuXb5eV9IN/fn69e0f6UazXeyJM9L9fpeMoXvIPX/50qz/u/yXou+4n7rTaVj/i+RZ4nHZ5ffOolH/F5svx+PPy+RDZ9ecBg/y3mXfIJ11PulzYxmMvqu7aB9i1fPt4b+UgBr9rn1i+P6JPy7fD8Kl/xfsxq39q6cfD5+1D5hM8vgWjLh+dv7/23ltA/zLr/Wzx8L5engMzlw2N+p/zh999/rzovj/TT8mQPXX585+8PdOjtfevaz7jfVH7t5+/6/Yr+qssXDNuyxgtLnu7frP5hzZxCu37tKZ/w/s2P0FQ+UJZE45caOQ2j8VRd+5PyCxoRlon+cNL7tHC8lq7b+SnfrxvzA3kJaZc82f+k911p6L8lje+WPK+npAlKvSzkB/K5qTz5P0te1qdgfJo0lbLkMcum8WNZ+5nyfponLOnKxdwH/Ndt8pR/pog/kNf99swQfyAv90sJ1xf5QF7ulzyvX/hAvmaVD2Afou6fPB6ZMlO6H3K/Etwfyb9/39weA59fktlLHvNeJl+viP4jeVmfgvY8alI3Z6yKWIJpyVP+IWp+Iyf0T4LuzxzRHj5v/6d8wP1j+dwlT4n4oPYzccI4aHI2Dbwfw2WN38hn/H25TxPnx8IVTb+Rp3g8qH1ODUsh4bJOb+QpAx80270zSCgv9/vOCLH8+++7I1Zcf8mP7YgG95vUx14eyAfykl/aNyyuZ5D1iXgegyat94nj3xd5zneZfDztf5UfGG+6fD98L7EnS57uI5dv143wSfmK96nLl8N50fct6E+6fEZ/2OUT+sP+/BHj0zv5gOdF5QPeXyY/r7L9R+Lvj+84fC3xljoGX0GdMfZtg/qeDV1tM/3tsJJSr634Yc2RqWgXosYtBdPOHiYcol75qgU3gRWOyyHmlRxLxpRAuRzAlzhnYKWOmLFgVK9030uc7GVV/zpjurPZ9XntilvxbtYek6/90eUyRN99aDF9uXawgYdu4ISVpWme1HV47zdwuOKqT8tPfXpK1C4713TpUT6p536Ut+fBym3WymTiQKiodYpo+9a9F1WeHM1YNRMZuXre/Hkw8OuaOY6YiF/yXeWpsLT8lNJFnkza8oOSPj85gkteIpXIiQYDVkU8XSlqZiviftufX58fEUlJAUYBE3k70zZEnhy7VHS/LXl6X6u0BNxv+/4zeUrcVD3vgRNVTSPvgDCe1BQHFxDKt5EI+jwUSOw4Ut+XHPFlb239KfGxkSD6+wSMWnG2PT854ivul8pVwPOVn3WwN/LkkiS97MIRrGnycL5y1vMe8LrLRTNVAc/vkvffB3uSqz8/olnbhZt4I0+J8qaV2ICBTe6KPAro/uZxOUZv5Ol9h7rXB/mpjtvheabevwHv3xI0cxyuC+1ePt6sPwFNzJ4HLgzf7H8ECmTFHvN+LsXvCwrUS9XKT8DCbWmaqQoItCr95nlIfuj9eyhsT0UKsHwNmik/yEetDHPipmb1/QMmXmvRzG7ARHk15FTAxOKSnypPwUVtvj/pvqhd8f0B4+NdR7X7i55n+P4psH92XVfPL2E9d91YvxdlPpa87QcqFDXLjPJ6Lvlhz0/yVmk5yCdf/4N8s/1D75s1HjzK+/eC9W+GDOL91qrGg0f5+T37uRkGm/db677fKD5q4wo/Pucftnld/5/zP9vNfqYMVA9+H1Hhrd/4kxSP9OT2jeKd/sQhvomnCCicNbkYMd7vFu9zfNfNn4yYWdo4O/t92P9Lvk6Vp+dvuh8i3l8bV2jxL61/0/MS8f7qXZOMHL/3rkiNiPahD7W3EYFWS77r81N+o0//XhQPdsunxesP3mfrwk3+h4D7Ft8ljBc2rlbTgeT/bNyuVPY4OWnIl4TrOW7yadh4UNR/40L4qFc64yWf4LxsHLdUwtGej+GJZ9oPY6o9z9jjM5/u8pssOzzPjGo/C9qfaa2KBfNjM6l/ziWI3cegRQW673afhNYssNHF2ocK5nN2n4fKUxliWgPUQb4pMrfged/dsLqe2AjU1f5XjJfnUKRJRaDDHOpfVTyPuwNTkJ5Y69j9lIKMxnzR7rx6Lz8wnt19gtJJwOfF4kcGQm15uY/YgX51sz0V2COY5pFFxiLMqUXEyPWmrSB3WMZLdSvISxe0ojcKFdNktwoIkAt3EANsA7zRYFDOncZg2NWtBgK7bjS4EfXVgPm8MTmE3gpy5S8n4LADsypQ0WpOu/QTVmv3KRKvIqMbu491UwWKO14tnk+FgoHoVpBVqlwonZpJTbxlX03ST4WGIN8bhY7OyI3CwOrVrQL1Wd4oTIR+uELmhMBWeL+XckTUwqs396nwzHF88gpaClTz2s288hcY7b6JD6oqTPrSQ/GC+bBbxw3glCAJ07rR88ER6Ab5rSfPRDGqjT9cUyOwFNB3a1przR2T7bNqsSx3hO1Po3NYCpPeodojDQTObv9zqALe7gYgyJOtd1aPftdM6C9kA9cHPkCWcykHH8jh+FxFnVZVWQq4+aI1ODBAbilI3bJEDIRXINbsL2Q600Er8UuBUnfDKFqWAsUaw0xlSdh1vYJVgWEvBWq7G0NBW4Vdy9GtcYFt61IQQ7YUyFSuAF0AJiVzBqOpuS/s7Y6qKYmlgDmbqjF9YXTpsHbY3Z5Cy1o0i73rfLSXrKGxMCB7ZIW4lYodP8OAU6Viy8MwJEupaFtH0lJsabxbo+UmGn+4aMF6R59vBM0W7vomK0i6fylQPDqC2aWBtrVPO9Pcqt6n9Y4xt85SEHKHGtDM9KFbYylgUnXoma4Rq+JLQfg4lgIFTZ4WrgyDXAqpqsLhL0iLQs14pl8MAU8FthpbIasCXYrdcpO1Xi7XZxWYZuBGgQ/QrQLWg1xhnPaSJEBfJd4PFd7/hcYQi268Ze1Q0+rqhrZDkaErfUNLiJLaCtYvTmDspSBpr5bRkPWu8fTueKfCX9fAbykQ8m8pyC3auOdoKYSqCmRbe1PPeFdv6Ts0BaG3jr53N3TMUsDv0NTMtIH4hm4UXrviS8taNf+4qR/oL1TtDe0MgVoK0ozWD+beavL9WPQMpkBeZS+aEu0JMyfdCUoyBq9LQXBTnQsz3fofOvd69KKewF5oMsZG2vEq/n6koKwvje+4rMWHfWhplaylpDMRZjdyt33V05fOtkqT91JS692ZZa9bRXMwxKNbiWz7mayQTYHYOzb5jNExUe67WxV3+fvET9GtoXyFIOjzRXsHZlRbNkIKRyuMQkq4oBxmSwEd3aCl+sGdYc0S5bsazOAZSQEPDgfauOElI0e3DVtWbmxuQy/FMfkvdL3jlgIinrompJYCPlLTlNdkso2loJzB3F3emoImlgJtjeasxBGd9eW7DFMgV7oVTQxOBnI0K3xP7izaHl5TBcqGLgW5gSb3RrVovMcHhWA0kkcFpTxNaCrrNMpTJjao1i+0FOgWrRaLLgVKn1YL/JYCWe9qLSUbJEF/oSuGa2Z+B+tX3LAKUrBE+czYT12dF5YJMat5ZEuBbqBqFG1LgbzKFW7reeCe8GokRrPiiauW994so/QORhMzK+9WJ0quDI8OtluZ6Kx6p3fFO65MM2QNPYEy7MM1hFiWruXmeSDH7HqxnxSasXQfFJxf9agQbZVQwRgCTwrZKFwPy5qNU7Zx64iROE0mfdocRqZAJZFi+dYDDXAxHpLJJfNscMvZkIgqDwWenOYTDKNubkyt1m2VOpbXcjVe/M49YIZx3I9Eq1SNF79hBitbV+ZeVn6kastKvne2rMNkxpBczRNoiEnaL20KdO3maqTbfOKyYa0PpjI3cx2Of0H9JT7T2dq99ypx/6HP60DmRgOM7zN9+At+ROlLt5sTh9M0mrFRH86Dj304nji1GsczLfW4rUDLWo1Hn2PRfR5sWQkhtRVsa1BR/laBcpW5WvzQmBXz7qUJv5Rv72lWmLZbT0fU3R/efN+p0O88AW7hVUe3YQp4XVkCnptcec3u81W+FI1lYTL/Y7G2hVkxyirGyLc9Y/Jbo43fqEyJngwJzBXw5WCpMWbE4AsV8FaB3qHYlXVQqDfxAyoYOGJWJs5uFikeFLqNTjgoWMf56R2GOViHvzDtBqo8rSDYDJ6CN9BSUHNfMLO+Aj+NUArmyGqyO67wxIikjQY7YicFnyOU8QaqhjlZCpQYrMZ6PrkIuRSkljW5m6dapWkpYIjviZDE79CUv2Yy9Lk2cx0SdsDVbtab83zVcAIzciJkmDFmtvrq90NEZE71+TUMQW9GuDmZALdF20sMIWlGyXtSSBahRLRLLVuaInKCNiuXx+7mgt3aio2ZCXhP7zS2JcoxjV3NOQmcKLf+6TGxLvoi8n+jgB3pdgPtCgcta9co61RD6Xqmx+Cm7qFJtdERmbO7uq1whEUXa1M9DJxpU8/D4MCvWZ/SqNzZajSNSwHLzca8OJiUe8/AkHfIOFGwG6h3sLnvUUsiI+GF0qMC9QfXgXYhVf5CwFu0R3tpZijpBpPszx64jxQEctsH0xkmm2YyuIk82TiWjtmfXWN/v6yvvvKPFAQr3Rv2rfZsEBJOlHcjUuvsJPasmZMXF8BHChKx98yIkGxTgA4oLxv78vr2HynIxb62I/WhdOtOOAyu6T6phwlyuhGBbkvFL63wvMmUDUbB0AZmsDYOJ6nCAYMlX3pdMYhqsXRRO5wHh4U1tq2WemwVa+y9KbHLUkBYmHnGjVu/e7OhN5lhMNYKsBQQ6tm0O2E5dZSm6MYW2BLTeZh33yLj+bpa78aEir1reNyYIW5DtN6/9PLGEftjwxRPkFtXOIB67xQOkFtVOACTXeEAfbY+lA2upt16p0AdR70bopzL/r3fYNapGNzNb60HmKSN2azMdtq75vk2sv+A97ZWAHLWl4LkZjbD23f1DhQeTdKn4r3LQN+7e5tVx3i6T/Vm9nQeao0xgvSdZqOuqaDltcLmfkSFhe3mG1ilEa1LpOKVtbt1bAQQfemRjG6cqTKGDW16FdHvFYyLrBS8p0dW3H1hj2wUa2zMTI9j3kxhIzAsg7Ub6qgp0EoiS4ES5cPAQkuBQL2jK4XcbjvkHj9pJS4HUqNhpC7MUj3cajDt9BhaHSg8MGxM6y0LGDQNo2kozGS8EytNFbBZ2YbkFObenTZ1qLAxnmYEXoWejxQE5bXnStEjGVY6s3Mys/EtHQhebJTfpqjlv6AMUIMbrosxFnT0W3ct4Pva0ot6lbljLDptfnPmovx0mqyGQdO0GnvmAt4u8gdVoMBvTxSXl+aGiWnuT+au2mnQ58wVjk2i0FWBvPtpeb6c0PItBe32Tye+Jn3pyIRZBs/LAS+UafMmDrO7XCFN5hRzhcH0Ma7A47huFQhoc6PA6VNf1lSZU2mobT0xlxkzV8oIPNssJFEV8H4YGh4nhj5v8i9TwAvFmFQ2nSMTBQmpyOYnZQoccaUPBN6uECfbJVfg+OFGgYfL3ygwfmlOxVXGA/WKK7B3f/NI5cSTpgr5xI6kxJcZy2vT4riYEOAxhyYGX8NlPjwPQt3GPt80JMJSQK43IwqaTOU1NJHIlSw3Y+PEFqhJb+Z5s2ZrhpBNmw7D2KjpKRCmgWn6AXiM3Atu+ZInAMK0cujh2BhbdWWinOzTxvDWycaDwOyIhgnn8WQz6e8X9mx9bi2zX0bLxWCyZ3qiBMsTY1rEg57IDjwlaEMbtIuw75+fm4BH1f3PLHajaMk0M/1OtnAKwbsjqT3JHAVHZ9OlpoWddtLRZuSyDJ9Tin5dN9xh4iLG1P2cuNJjl9KhjXxok0bC9e/G7p5OlAddfx+LZ/1mOtuh3mHD4rigYt+LMGXd0CHc49iNjy0yG3w1r+NUIBV6HkZK9axIKWbo6llj2IgOdbfzGJmrITm7O+7PqKkK5jBzyAZPT2tT7X/EaU2bu0LXn+pAbfh6Hpqbs8nT89g0hwNiy/bzUT591/OY/3CQt2kaR4hatt//rmkgR/lg60OwP5tmcpC3aSlHeZsOQPI+7YXf16fJ8PfyaTUR79NqPKGRgcvD7QPCX7tPkyHYQbUKPAdIexqRTns5tBnbdCSqi9Xi07uomF5tQi5PP6lRiysB2xHvpk1RPHI3zQq7Im6mZaH8zTQulL+Z9kUw9rtpYih/M62M1vNuGhrVVO6mrVE54m6aGw4pvpkWR/H43TQ6AhncTbsjf/humh6hse6m9R3kbRogyt9MG0T5m2mG+L430xLJPtxNY6TvlY21gLOPm7XZfp/6poyz4Chf7HvR+ybNhxzW04iFAndaRq3hM7g1G4cPs/Qmo8Rl/2pPU9X7Gqf3DvcPcTpwd/+c+h72tFmVp/zPq8jwxv+n5zeqWqYYTjfxEdVC043/SfH1Tpfo85D93AUJ3Q/kDyTr0YtIV59upheR/7M/p8bLlJ98XW9v4mXaD8Enw1NpORr1asLqeLROz4TxXezqzySsZ0YDH3L+JDbPt5D/E6tNnkCQ9pK3aVaUT4vFnwenjGTPt1B+b8mLv50xH+LT6jNPn4+afzjIB59mdZDP9vyUf1ZzfhjG5U+DCDFtzsgMXve1QTCwpp4zd0JZYZ5Jngybw4Gj58HpnrC0cMG0cFGsd2GvwdiYeYSz12holIu10VXsVrHuFm4sj+pANjT4UeN1Jh2Jiipm2pSo2eOO2eBoXWSIVgya+x5Ya7FUyUR8gmdWApaUXZ5duzt5MvVBu/6W7aSqu8tnTEW6PLNx38mT6+Lvy6VJl+et6fIdXRF/fsbsu/zAHmGXn7j5Tf4waNvlefCrrU+KGHrb6UoJ7ZQd3sQEwpY5WEaZrGw0z6uwq6OZ8kMpOWo7Q6oYilq/dWpYioqa+Ug8myHadC2m3o5WiersOipuLg28tqIi7tPA1GjUSsJ2lvB7aWU4HN5XK7EBMUKWuVyxO6U+LBOWmdfA2ulz5tBYKwO5YKrcqBSXPLW6J638b3wq2BOXb1iKTRrp7llUFBprq37uaH+SelWbxQf9JNn/m8SH5W1KFKXufe4rk7wnzXwXHgyd1J6XQ+itkOg9N4jYqwzZkQ9OsPhuhUdeGg954UGx2ZAplamuNNJd8siEqK5qaRiBZOszaVh6Nq+/dCahsm4fxrwbsqkMJkxTmH9h4nir5JfBHHFqzwvTVHgQFZj7TEmyK5dubcpbZXtureC7mRDWs+h+qxnvd2uCqIX5TA1JVxDa4fL18L4qz/vZ5Tt+r6IdFnUwHav6M7v2S6Uo+/2JHa938offF+RmQP/8Tp4SIEYMsGv7uB80Euepx8Xm0SQuBSrcvjGHtmW+G/Nr2Vz6JU/Qo2KJCuajcBqEJ3HOJ+U7+jPFkLmDWddsRNHAeMEI9Ns87Acd0xEwHq/qT/ZDaV7v303tgr8vSL2eMF6r6u91zldUvU87p5qNg6JzK1JVf69zfsOQdy/mjo/kv4suxRiFO+cBrdLVmQGg2kCfjqU9l+fJHHfy5H+6/ET/0OQHT/l2eYbe2XqOeHp+kWd76/IZ/Q2XL9jN4fL1O9+X+dbv5Dnhr/L9tD7yvbiLyAoKg+O7anSPgbnkjC2eoQI2uGxy32FT5NrkxkZDgsyE56XZfIkDu4YiQXbvBTyPVf5nwXi2G+Nhwf1gcw7ngT7hhumV/OFh+6HxoGojL+x4X0wjh+6cL7JWjjnwDywF3UGDM45Rr+zJs/Wida/PgfC4mIzgemBSIWbbdQOtSjRA4+QwNdp88cl0KLGq4z15oOBSmK5AH84YHl+dePcK3Wb2DISNRT9sg6uE4+bDYbZ4avp6K8CybqSH/QWq0Saf5DLQIX1B999ubwbPCJh2DmSe3Tk8Ow+o4JTBB4ViA0EGZ40t7JgDw3T3kyezOSRjUpuDMT1NPd9tyOiljY908wpQxdyGqm8FytUaHcrsWCxK1uc0O+9WYwvd7AuU7vRJLh3v/xyNLL0jVj8b0+a+sRgcqVujMRrXcrCT58dma8c4DTUpN0Mc6I57cWi8USC3NlsH4mkWgEGyZkXrnf1+4DmNN8M0eI7vRv36AATKld7NZMBVakb43rA6mJ1H/zhnxRXI8t3OiqGA4WaoCWeMcrP7oWHJLLup5PmxuZqD1fAW/YTC+offf/zzl7/+5edf//nPP/789vUfX97+/5+/fvvy929f//XbT8//9McvP/7+Zf3b/wE=);lineShape=1;" vertex="1" parent="1">
          <mxGeometry x="-270.7722529648675" y="1189.3154282720077" width="261.6435168779112" height="232.6869006539317" as="geometry" />
        </mxCell>
        <mxCell id="sg7OMgiajApuykTyA2kg-76" value="&amp;lt;&amp;lt;Value Object&amp;gt;&amp;gt;&lt;br&gt;Task ID" style="rounded=0;whiteSpace=wrap;html=1;direction=south;" vertex="1" parent="1">
          <mxGeometry x="-41.26" y="1333.1499999999999" width="105.62" height="40.49" as="geometry" />
        </mxCell>
        <mxCell id="sg7OMgiajApuykTyA2kg-77" value="" style="endArrow=diamondThin;endFill=1;endSize=24;html=1;rounded=0;exitX=1;exitY=0.5;exitDx=0;exitDy=0;entryX=0.5;entryY=0;entryDx=0;entryDy=0;" edge="1" parent="1" source="sg7OMgiajApuykTyA2kg-76" target="sg7OMgiajApuykTyA2kg-51">
          <mxGeometry width="160" relative="1" as="geometry">
            <mxPoint x="109" y="1348" as="sourcePoint" />
            <mxPoint x="90" y="1426" as="targetPoint" />
            <Array as="points" />
          </mxGeometry>
        </mxCell>
        <mxCell id="sg7OMgiajApuykTyA2kg-78" value="&amp;lt;&amp;lt;Value Object&amp;gt;&amp;gt;&lt;br&gt;Board Owner ID" style="rounded=0;whiteSpace=wrap;html=1;" vertex="1" parent="1">
          <mxGeometry x="158.61" y="1642.04" width="110" height="34" as="geometry" />
        </mxCell>
        <mxCell id="sg7OMgiajApuykTyA2kg-79" value="" style="endArrow=diamondThin;endFill=1;endSize=24;html=1;rounded=0;exitX=0.5;exitY=0;exitDx=0;exitDy=0;entryX=0.5;entryY=1;entryDx=0;entryDy=0;" edge="1" parent="1" source="sg7OMgiajApuykTyA2kg-78" target="sg7OMgiajApuykTyA2kg-18">
          <mxGeometry width="160" relative="1" as="geometry">
            <mxPoint x="330" y="1664" as="sourcePoint" />
            <mxPoint x="397" y="1622" as="targetPoint" />
            <Array as="points" />
          </mxGeometry>
        </mxCell>
        <mxCell id="sg7OMgiajApuykTyA2kg-80" value="&amp;lt;&amp;lt;Value Object&amp;gt;&amp;gt;&lt;br&gt;Cell ID" style="rounded=0;whiteSpace=wrap;html=1;" vertex="1" parent="1">
          <mxGeometry x="-660" y="1563.9999999999998" width="120" height="60" as="geometry" />
        </mxCell>
        <mxCell id="sg7OMgiajApuykTyA2kg-81" value="" style="endArrow=diamondThin;endFill=1;endSize=24;html=1;rounded=0;exitX=1;exitY=0.5;exitDx=0;exitDy=0;entryX=0;entryY=0.5;entryDx=0;entryDy=0;" edge="1" parent="1" source="sg7OMgiajApuykTyA2kg-80" target="sg7OMgiajApuykTyA2kg-12">
          <mxGeometry width="160" relative="1" as="geometry">
            <mxPoint x="-480" y="1426" as="sourcePoint" />
            <mxPoint x="-440" y="1460" as="targetPoint" />
          </mxGeometry>
        </mxCell>
        <mxCell id="sg7OMgiajApuykTyA2kg-82" value="" style="shape=stencil(lVbLUsMwDPyaXDWWbPlxhvIfzNDSDKVl2vL6e2QySSq3EcPNcbKxV7sru/N3p+3j27ojdzofDy/rz/7pvO38fUfU77frY3+WUedXnb/bHI7r5+Phff80PL891i/r6PXwUf/wNeByASwVRe57mPERAv3OPAyAXb+/AJQIFBQgyIw3AAVSVgBOkJIJCKwAsUAOBoCBNIeMgMYKWTZAClAccF4GpASsSZcEriwDIkPWK6Bz4Nwygn1bJqmDM4QIBLEBBCBeBngPsSlTBDRYk5RJs04M0agrMYSklfOQ0VwBnfYGQrY4ULtCQHCGN+pr1P4mYEsHHL02AuomjRVmihOAgQ3ScxEvVkiGmapMTUbFLFbkJiNMVaLR8UuRc9qubAt34eZJajaVq4HRdq2higZAIqnLVGNrsK6hjzoQDN6QurYVrVxtPcaW+CoQc3O77b4r5YrdLKX5el2luUEvAsp/ABTBaW9kEc4gjbGtUnaAltJA2hlJQmvI4Ns+Jolyxv/FF5oASyc0CFw5VXqC2ZTAaRt5NPlGiDo7hKbt0I/lmM4GGk+L2xuiNp1iIoOA7Lfo5NhN9fok+fOoYmy+T0oAGcwXjk2/2w33lcv37QVFpobLjV/9AA==);lineShape=1;" vertex="1" parent="1">
          <mxGeometry x="-48.4487364735719" y="1763.5495201847957" width="3.2230755116520413" height="3.2248481794399595" as="geometry" />
        </mxCell>
        <mxCell id="sg7OMgiajApuykTyA2kg-87" value="" style="shape=stencil(lZ3ZsiQ3ckS/hq9l2JfnkfQfNGNzSJsRm9bkaPl7AaLV5p73oO9bLxFVWUggEIuHxw/5b3/88uPvX35I4Y8/v339x5f//vWnP3/5If/bDyn9+tsvX779+uf60w/533/If/v567cvf//29V+//fTX33//cUvuP/3n1//an/A/f+mNWxlbKYX//esfYrvF+P//8h9/yf/z199e5PttTJUvmeRzU/lRP5Z//O9Dvt/SJPmSVL7j54fwLj9uqX0sX291qPxIJJ/keeathI/ly23kN/kUbqGQfK0q32D9yy2/P0+Kt4Tysav8gP2w5OV50i0Pkg/v65nyLcD7yrc5Vb7B5y/5+C6/VgCeP9/f5ov8xOcZ7/tn7xBYT5df5wv225V8h/3v8v1+Ir5TfhzW3+V5/VV+ntbf5Cfsf5PP4Vb7Z+TX/ofzeCU/PvN+c7qVz7zfnG/xU8+Tb/1Tz1PuFvi75edn9luut/aZ/ZbbLeF+60XlJ/7e9m5/cr9V/L313d7mgfYwq/1c8gPXJ8rzL/sP+zndZld5Wv90twZ3+RLQ/iRdnxLvN+AH8uIPLPkK7zfdT/dDPt0CnPf1v1PlC5zfeJtJ5Se833jr8vwZ1yfe2vv+LOWW4PnjrUyVp/0Z77f/Q77ed9QH8ul9f5aG9jneYlL5js8f5POXhwb7M+j+XPJ0P4b723nIDzyPLj/RHwv3b3+Rb7B/wv02ucvXgP5tuL/NF/kK913Q/Vkj+m9B/ZMlX1n+ff/UdYJwfcQ/X/INf+94Py91WTDYz1fyDffDeN8/taD/cyVP/obL11sE+7nkm8p3sIcu306f31We96fK97tH/d3ydP+6/Lh74N/5fgfa/yt5tg8qv/xDXp+p8uQPm3wL6O9dyfN6ynlsD4v63fIUL1/JU7zp8ukegX6f/Wkn+6DyyyNi+/9uD1s52CuXJ397yb/vn7b8T7Cf8e6NPOTb3QP5SL6qPNn/qP5M6/h74926vshXvt/l8zlei/fb80WePz+/349tHtanRJVv+Hvr+/vtfB7j/W2+yHf0l/r77+1rBdifjCrf4f0+btuH/PJ40X9OSeVpPz+yJQ95Pl/p7k29yA+ML7r83hUP4vOIfV7yZH+ynpdecX3y3bt+kef8Rn6/v3o7xGsS3y158k/y/XZ+yHe05/meDXuR53yL+KtLnvNpQZ5noL/xeJsv8hQflXt24iE/cb+V++3wIk/nseh5HOEeoXyQLw1F5Sk/XDWfPJaFgfVct8O7/RwJ/c+q/v/g89s0XzoyxvvtluV5CuZ/muaflzzlf5ruz1HxvK/dnlSe8g/9luR9NfQf+n01HvId93PXfMWSH2DP+936PeTZXx1qz8dEf3tofmPJd3iecc9G3uVnQHs41D9f8gPk19O+74cZMX6ftxpUntZzqj88033HXt+nQRNk83GFfKQgGazJN16M+gqWwiCXI+oZmAVrEjHZbyh3t/ojBf2GilnWuK69oQp0DSwFyWNNvvdi0YtyKaBjVu77+EVhkqdV9eqeHU3pUuhJFagWFtv9qLwoUPC/FKYpYHaw23EYGC7FcbfOLwpk35eCXDhLgRyQONWiLgW6ceK0AzQ4ZRzUR5gT72QPipcCrVJ63MGvCvRIyfYSuyGeJ18KhfLM2VZpKdA3FL15tgJYyl34cwX60U1zx0uBfJdnKe97v2GYITv8Bt98XK7IQfPNk+vb2RK2+01TgSbe6/ffuZd2wc13K5Ucs8bUh/OwFPSSnpjkzUWjkH1EKaqomhbYRoB+Q1U/e5sZqoM2DdyXAm2+3DWyWwp0iy6F7raVfvSwK2tg7iRPDRYmO4dLQY1xx2xvCZoOWQq0SsXqF0uB6ju7nGaPRAn3krQitO9peqSkKY7tCRAkI2uMtxSohl2KBjGTi7ql3nM+LwqUxdpFL3kPFX2+pTDMwcI37buVgRy7jpVVAZEu0/ZSxVt0V6bskShXX4MW17ffCnapxvsV+KJAZqZauXYp0LIuBfX5yr3Ceq2QzTkpeMcthWkKFKFUN8YFj+iuINlvoJziUmjNFOhHN7uBCmdJmhmygmmqXUWS85CxLrMU9MVlBDrUoZnmmRkZNxTaNx9gj2uFaRd7xjtul3osUqRiTouKBtwKlI2JF7+BygPNz0PGfHx7PPGrAiV8imbYTwrVvMqDgodlGS/F9ogLXxQKrVLXqs48ZNGGhccZy4htah5tK8Cb7p7XyOhV9qiZtMmV9G6ljqVAXmW32sJ8REUfKQiYaivQj86WvUp3P/NaodjFnvAALQV9cZxf6vUivxRplaq5P1xB7e4Zx3uW4CMFwZQsBcoh9m6RYkCQTh93d+pFgS6UPrSMMSb6S33qHbcUyOdbCgKUWgoEJBvBMq0DjcBSEHM/OgZNw2rTo2NoOaLupdFwey8FcRKXQqTfkBReNSrCs4elHkdFT2ApVCsgUH5p1y+84kC/wcLj9S/k8+2KhylEypEbKHSw1RjFdmvElNdSKF0VKE0+DIe/dhfhCkbVVVonhNKno1plcuKZXgoCTV+nnOzS3pvvy7oMD9VWl4IWVxm8sGs9Up1vvKzNyu2Vd2vXelpnPPJSKFkVsOBigV9nF26ZLXESd0mfVmmov9QTug5LQWxrj3werGrUI8bTu8gl38Cw4fHIub0okHMypp647XLRi5u6l5YCVQaXgqSAlxdIyc19Z4oC196Xgv6GjjnjGdS73+gf2EvT4KXLuaZy7nT8T8M7bjpAp+E9vRSaPBIjqrY7NVWBsj/bYZNHKniAtkuYVYHCgWmomBVGTXoPVsBrHKFs11xwZ4xD3+HFVAUqWMysdqlx59W01qgW8QDtpIT8hoCx6LRms8p33Cx6ZW10J23vqvmlOtAjmxYO7DwErVLV8LhyTfGZN3xRIH9pKShE+5GtuVZo2iNywBTvdKx8Q8X44Vn6fVHAVWoGYy/8G7rapVrQ55tdU48bOE5numvKq3Kn1C79ym9IeAPNoXZpKeA3WMqrRswvTatwLAUKXufQG6iyGzqHWr6dRWYFuXZ3AwUZgXG/oF4U8E0Pa1HilsFd6iqqgCdu6A1UOmIdntW3F4XDKmmbScM4bg7rY2mY/XnW7B8KFd3QXXLMqkAp4K0grVAFQ/xdBZVvyIjFm1ONQOEc2bRyc0l8A011pcsBvjQVH1gixtPP8vVDIbCDNTV9mid2OD0r6g+FgRDKJ1DhodAxFT+ngjozx3EXCu304lShYr51Wjiwa+KHRxIFrg5cKBw8Mv8N6b4dv/c9ROw13grSXBowg3WxlwKj+Wy3Jm6H2edhqkJiM5OloZ/hSH5E0zhtDUlubhAnP5LUsjarBH+DeJWpnb5BQvzU+BuG+hqpIgz/iel6UaCa4r5FhYiBK69bwZgPTp6AfENGKK+7DilztDs0tEwHcz+0+JW423EryI+OfIteKeD9YLmZTbhx+AZTQDMzNKMbD2f6SgGthisMPg9XChi8ukJHJMKlAiZzrhQwr+EKDZHh7kovhXB4pPftHSum7aaT7VRE0D6xpg+Fwq6DBRyR2312DPR+4mLme7qroxszm5muyf6Y+GLveoA2PpsfSXqoYmRPoKujuxQoG7rCY8m3LgWMFJuamRgQurAU5NqNge+HZsgcLO1u/JSgYLDvfBrx0SHqMwTj4LNQNKxk7N9GBUkG+5S7ko3d+fmtJsWguWlFr4a8BTNrYaNiVXpnKJPIE0B6JnWHGQo2rbGxsP21NDEDkKYRU2S2vkFPPfNCLXn18dB52eUGcS24cjUVw5KwL3ZYmiQi3moMIwrjopJhCCLeBKNpFoZTVcNgE8z7suSLylOpZBdY9XnIwx6GMY3IIzUMox3xPI5sBpdrdElh6ZzJ222GKo8VuqjeR0BszzBiloCo4CUvl2Q4AUSkQhKwGrGL2VnkqU+uP3KCL/KElhq6ntwX3s2LOEBuuiKOD/LWzHGQr5pRPMrnT31+UWTiUT7r+0V5ux+P8tn2A8mni+en95vU0z3IR/V/jvJJzyN5rT1oNB0YOReUmILPV7M0S8BEaBta9wroDzSDRTCvSbNGY46jmzVWRwTDN6sMsv1vRYv9EfuSWtaWtYjJ8ZZ0//D92KxtI2Jc1aLuH05k7FqvyiNyOWh6KKK/tLHUen+R/1DtvohYMKlT7U/EQle1fNhRXpKGB/mu0NeIJaXqISHGC7vEa/4brY8RHTBPSS16H0XmUbCmn8itI0ntQ0I8UDViloTx1+5lkeQidv2VqZDxhLxKxQCvCc9jGWpPEjdRdY2/EibxnjR9T3ns6qpaL+T4qFS9L7g0V4rGdwyoL1lB0NxEsCuDKk/+wC4MqjzlN3ZdUEqLGK8VI2IqvN/Mf+Ziap5GvIn2NltFoaD/kC1+ZMqCbPFjRZ7OTbsqRG1Yz979pQJqYZ5X8we4m27Ji32reP/mqv5VZd7iovafCzq5KIin3fs/ruWzQQXR/1nySfNLFF9n8585f5WNeIrZH3LU98U8hTkq0wJzP2Rrn+nczxzUf2Ne0p0eFWIZpjSYuj7j1HrfVR55xYa1AGL+cy+HNJ1g/ipZjnui/UkG7Z6IOXDioxhwQ6zzJM1IMeCJT1UjyBjQxXWuqnjgOrbupcjk4MlYWTY5Db21rFmFyG709mLskcgvSEaXEBOCCXec1lQBiTGC3sQxMSXftFApIYY/TttLGQFg0StvmVmKumU3udEzdsWZxsyEPXZ+IifIo7W4LwWqE0fPuBZ8cdG42Na/IFdm0ZzH+he6BPciStDBHetLQaoOkXFEMSloJ1amNYqW964Y2OxKnixrY4ZKPw8NKQCtbyEyPtigIrFzN4h6FnsECqWCbaRJP1CaXYxYwefXTMzp87UayyQdQz2Fw/p0vfkPUIOukc02Bkihp++XKe6Mgm4jGXh9bEQPNTcMuzd5hMKwzAG7ggYD2vJUarHMTedWIsussKtpkdNhZNCwu6Bj6mAoBXjkERPDzC53HBhK6jDCyFEkp/OoV1lH13TYbdwxVTWUKGj/3k+eF6ITuDyPfH5t/YmHaCiweu83tj+fkrdK8h6xhfeFAmYqpgLWhSQ41VgxVolGcr25/Vjh4p5ngkTJPkWmLY1GWnRybrKhtQpaiWgB+/oI5Ds0gsSY2e+1kl1kzEP0YWSZh4O4k8kcE3vni61IGNZtR9nRWvSmrc60FKhLOU4laVkKiXzGqUiYmHCER/LzEJkjO2qnROTiSzJegMjt5SlZNj/inZ+yNuxG5oXdxNQWLdMtlYodoIAZ4p1gNAUc9VON3w1DqFSNspHj/WYMRMwh2Ywzj99B1xTcwHt2w9g1xYT0juZYH1NSliLD1MDUlCbfyzloJMR0GtkgWx1T7jkqt3ljavmoUX5DyF+O1hDLo+cstmwYvOZkjZ5YYstZD/1hVJod4copU4NwML9cNu6divs/Vw3keNTV5qRUeaT2b3q+uOc022zQglY6W8tpwR7vPGw2GZckvNERIWe7T0xLTuQ3lqAQgoyQMOeizFyCjNolzDmxYpCbzKNNrWf+UIL0WYE8CtVK3sw8Xqr1ESGkZ8kPlcf1adbugnmGXTLWEjDZ22Ilg4QQ8WJ0qQk95GLc7wlLWjU4JIMgSfUC4oIQiGSBMZ73arM/GNKzIRMKgaA8T61qr7haUA2izxCpDSnR50eIRbdEJAZlDolhiKlDbg7yBuk5yhvElPJaDkkKWFbYkCeDtDG5o0GqyL/dkC2D+ML7bUZ6foDY2azPw+dn9WcO61P0ebhbdUPyksjjKO96Aekk+aYQ+sAQta71voD2dtMF6edT0NamQiwCQxanJqqYiqEHbUkI6I91mw0acP9cQV5p/19Bag/y9n5R/gISTOfrCnKM8heQ5oO8Pz+83ytI9kHeIN8ofwEpR/kLyPpB3s4Lyl/cF7jfhlb4A0LUunGMBYwfd0uC7k9Kfg3LAwWmJbS0KCdEhvkzgVtOkkPKyd8YSQsPAYvcm4dRzxexZi35qZ+PBJ1FIT0B8xvDZntxRmozJKo8tixZ+pQ7s5d80feFddKuLUKB6yxd72u+Hzcfqj4/1vWM0CViHnRMje8Oo6KCZci5hTMYogf9vRn1vCdmdbP7KzGbRtL3lbGut1ssDWJK8tkhl5Qf2FziGu8jd012yCW2fNrsvwMHhUF8G1Z9NpubQgSRdcwpUU8twzqLkLmujBB18Oc3LX4MHq3WbIoRxstLXrmsucXVJ6pg/nY6BokvjD2rZKoCsulZxjoeKASNMi1ym8cmJDC02YHRQ/swEjMzmtcRmeR8ev0/n0h3FLDBibXpeLaCkYPzYkUmdZ7T6nqVa9DT9lI9Mm85G8aBB8hgKngcXOHA6HGlgD3rVwrYFO8KB96TK4UD05AqHLhbrhROjE/SiHLgn7lSQOoD2xonDp0rhQPXnZJQHazGlQLSW/gjHfgG7D2kA1GKcXsdOlKc0CwxXHNO9ZdTZes9LUFdMSOzFLRJqZ3Yw8QFTu20WyWmSwzeWgrSh7DLrmyXBG70BMh9qDBVAaG/IRh92JFkTZvXjodafsSZKE5yD2cqOu3nOpLdyYs40+kJTu9M2KcKR0pAVTiSDqrCkdZQf/SROFEVjtSM+h6O5I+qcKSX1K1xJLBUbtNwXCUn4WQ7o/yskX24qaX4cuD6NTuzGxL5kbSfkOdhTYPtlYJAqDmtXM71+K1gDLBI2GfmuzTm6ppaMSk8RHjfKNIVydhnv4IKg9WnDW4q4/TitMp+oBQ3XtAymXrLHKalcLhGBUhRjy6ZZF7rIZCbCq2p8UQvKVZjKWBwbMXAmnDOxgUzdWLGK8OtV0ZDTsNrLAV0vrtxahXOEHX7DQdWLYOM1crRa1cw8VLAyQXN3kPjLFrT81Ab29ZmFPsHutWmDRyVx7JO45qqhzCraqZ9KeAqVWPMP9LdaTtv4JjGk2OHI1q02teYoWSn96SjN/H9UDRP0Ri7O21GdsuIlN9z/4oqUGvPc8jeQ4ExUhdzNrgPfnrf8yEISopabAzLm4bdbRXr6nveiQ15Ocxs0b3U+EKx0YGNoZcz6nk4T7aRCKUNTjAFe6TBznrQalib3EZnA+XaxCvrOQLvkV8O3AhizklnUrJhnkA/sM5ZCafztTusmagnLDrsopIoZKyCD2v36dzmMKyXtnOrxrDW9V6ZO6/bstZT5U3HWzUuZTb17nvnYWzNsNScShwGbt2Md7RKVs3skxkSq/reI3DfUtULZQQsGA0D/AwmsRpF+4TGYfKZsTyOw2y1ogdocJFvZPWXRuaBcoaiGgwb3sMOTQH7J5Oa+8HcJ3vmY1cFikWHkY8Nnug+oprKcejRjLZKPIJlgytEYbCpDIquG4O3RlA2hzHRM+4WTz9HzH2kIHHcnhgHb7pb6+hkCEE36z05td6NXXty2m7bOZt2S+ehOzEIM+f2piHNdrkIB2S4qj2mmL6h2FzjjDzqS0Errxxarisw+UDqA32ljR7HJvN08Q04dTheTRKnVbKutsnzHbpRXJ3mrZu/dJjovlzCYb8BWS9t9ubMTHt5OfeeQL9NQYMzM1Hm1fh0shp7QLutEuKcs1q+HdnRKhk38VagR7KAY9OlE/TXoHFbgbHXaio58KtTsQs7/oUjWm3i1ix4RKvNRph8sdduZ7pgzXznSUyBEFTVSFS3AkHmm8bTs+CJq/Via9CJq9YkMxm1VI11aSkQrGUpCCxwFqwD1aw4zlm5McKNMQccNRkZF7fSVWPrnhWzoTVowWJW3q3mzczKBIs2rWoyU04xHo/JIwmKpU8n5ypLN+vduAOp2eZrWKstxpK6053cMyau9OQR8MWaMvesTCbGlEzi7Nz2Zm2ok3MzJZrPx1x5xRpbdiacfnSwK2sgOiJbeW3PyiT6RKOLn5wCzkP5KycPGMndfG9m5MvdTtzgflfLCewyzIHzMqoCZR1y1Y6nyfN0syWZnzPprhWMxvVZP/tIQZvuec53TvbiJtqlbAxeuywJdinbKIStQG/agM7zwEwwL340Qbs3xMS+gdzQZGPsnzXxawVrFpkcvCZD1z9RKNcKxe6HiZFislTLCzLmWiMZKfxZI9qbwJ8dP7uwhmqfE43lswvldfsRE43xMkzm5ow2K3ZyZiMas8Sc6H1Hv9rZlEWPs3hMZGwX9pvsxpO270WB8g6bfscUqCgSPY3Q8VRvFG9VBWSRtA62jelmQkVpSd4FYiLHsR6hyYOKozVJzMZcm1ELbM8J6R8paJxVT4SKuvkKAlA3DN6jUSoHX6QdEOF6kROg/JIx1k1GIxmD257GhYyN6r9xZ3u352Hwn8EcJgO8nBiHLZ6BHJ51sOvsgcZvY2Ce1YgXdisWDdsw4h1mGGwX6XSKMprVTSre/lXNxJJPlJnQXMkoPJxDrcouo+DzSDi8p2VRoKcO2HNa1gfyYnhHwvPlVaLIzBraqLWrD+Sjaipp8AzwrPaksxOStRGvM+LSiCz6xPXJNhtxICwj6+XdB5PXa/avM5OUuXW76kD0aOrx98butSZIO2OgkvrKuzWbnEa9X5Y85eaTldB5uELS2QS9YCetVef6gVtay7Cdh3NE49LPTO9o65PwPooaWXcejhg1Q9gZKhUMkcDD7YI27u3SB+x/K0U2vu+C3qdton8SjIiMsQJWqGkD0/fBUFgdAw4jWtllFVwfeb+tYedK0FlIjfOCQeEdjV1QRwpVDH+C+ietYDATdH+2gqB+l8/Y2RvU3jYebnoln/B9qXzEzK+vZ8Ss0pU82SuX587/YESCASMMk6/cbnMlT/5w0ErrLk7x+zV5apW8kif/2Wbj1n5aT5Pn86jyDRPQV/JUPXT543k3+c99Pgecvv4F/TGXzwd77vJsz3V/Hu2DQfE/Za92vQvtuYLYmbnM5QP2gwaNp2pA5gubrVnmaX9K28tAfJV//kBgqa1n4eHlllEszMhvRJFLnnpkfJYZD9MKyvFcyuG+kATnpmpk/yqrPMUjwVqtMpZFgqYSy4HUWusDS57qx+YPF2Y2jLaeDBuO1mXFw2J9Fl7AbqCk5yuzf5vU31vyOHNI49M8eBiV9nzlwcOxdH029SvKS6EiNyYI1xpw5vPl8txi4PKFKy0X8jiGyuQz7s8reUIWuzzHgy4f0d++ksc5XSYfEBRp8mkiBuxKnpimXX6gv3ElT9UYl+9ob12eu/Sv5HHWm81yrcyEbiQAPHcqab4uFYRYWP5qZ9ioQKz2f38jFfYVU/vMIH0kb3wYWBLX2ZoHZs9ss3o5v1FsoslEf7XYRKiJ8V0xYtuB+WQn2uUJN0Y8vudecD7fqGq4XqATgBqivbpNVKrYmOoToRjrNWyWNA98GUYvxF2pPkHqJK/7gfOlQ4kEY8X4wjmh6mEiWrPnIf9/GJEv86IMI9areH9dfT5BJIcNsuSOQ2u13lxNn5og1ZhJ8Ci//vD7j3/+8tdffv71n//8489vX//x5fX/f/767cvfv339128/Pf7pj19+/P3L+tv/AQ==);lineShape=1;" vertex="1" parent="1">
          <mxGeometry x="216.55308534481628" y="1183.3361983465916" width="265.6138124499445" height="298.3310309879902" as="geometry" />
        </mxCell>
        <mxCell id="sg7OMgiajApuykTyA2kg-91" value="" style="shape=stencil(lZ1ZknW5kZxXU69pmIF4bkn7oBmLTVpTLFqRLal334CVbt4s95Mf+L/VEJH3DDhADB7uP9V/+8ef//D3n38q6R///PWX//j5//7lj//880/1f/xUyl/+9ueff/3LP/c//VT/50/13/70y68///uvv/zn3/7427///Q/H8vzT//7l/5y/8P9+82vtY6TjVdJ//fZfykf77T/8r9/s//qXv/3evhaxLxPs60eE2OeK9qOJfcpo//9//mWfP1aAffmILPZzoX1vYj8G2tcu9p3+fv6IIfatoP1U+9rQ3q6/dLSvSewz2ye930TPJ33M37+v9BG0ftJHT2KP7zd9lKz2sN5qfEQR+wnXs+2H2cP63PZV7Qf//dTUHtZDXf48ab1t+67X02H9bPtifx/2h22fqtg3WA91fix9X43e1/zoofb0/OdHXWJfYf1s+9zVnp7n+Fj6fCq93/F6Pf+yfRlqT8+z+3rGv98/ut0v22e7X3o+zdcnnS/b3t5Xo/XZPpLuD43e7z5fdH122N+2fdH1Nmh97vNFrx/3h/IxzJ6eZ3kt9y/7G62HfdzqfhJ0v1nXc35tSN/Zy364zwvar7Kfj4Wez/55vZ5K6+fz8X2xp/Wwl4vad7qepPvDfgBgX0L3t4zrYdt3PX8X22d9PkH263V8/mvx1baX76Xg+9328v3u+JDt5frL68B8tp+v4/xt39m+6f3i85/6vRd+/vu80Pg5YH2WfV78/vlUfv7jFW6+7TPbtyL2+PzHR9brwee/z5cq9nReb/uhfx/fV39t9297/L76R0lqD9/7tk9qT/Feabqf1I8F++e271Psg+636X5YXwfId/b59/tJewXgz/afl/u2x/VT9fq3PZwvZ3ktsaf9/Hwe+vcLrZ/yCpe/2NP1lFd49MWe3u/e/uz6yX5vx+XH7CW/bq8N5jv7on+/0vtNr+3mbU/x0js9eNt3ep5J4//9QcB6zjufamJP+dq2H79fzx3X87aX/bnjesvrFe687Sm+zXbedYwHtn3Vvz/o+pd+v/1jwXmRp8ZjHfPlbT9+fz0D8/dt36rYUz1h2+cQe4qf89DvfXxMtp96PUHrZ2i8NHE/yZZP7QdAz3N8pCL2FD/kz9f5tqd4e9tLPr7wvN72cv0L8/FtL+tt8fpsur+t14H/nb3EJ/GR6H211+f3tqf8cdtLPSReAcWz/T7v1J7yo2z5YE5YwNoONdSBMpLtIBlY5pJLLpaC7aSGnmnRMyZn3kSLFqW2Q6W3XKzKl7Estf/3DHWgvGT/b/kO9m9muumsgcd2wC/ZK5XlVUt9dki6lParTPQLydZS5cMm6eZ7liNfUunqELSWkoY3meMtK4duezr/wtLthvF02CPqmP+Epm9nA8Tr1/JCx3gotFy87ekNhJUjOsY3S9OlfaBQ/L3seQ78Mpe2S86BCNe/7HkOrI8v2ykm9m+WbXYT679Tw7NtT3vdfEUPn/YLr2da+2O9Cj7f2Ov6Wfh8pt1vvBLqR/th9xv4fQ1r98TrgP7GXsrjO4Cn5zN0B7rUW4fuuqdeCe93vH790z5jfNA1XDz9MLieruW1knH9dGsvcj+ya3nw9Efx79es9hR/9Fd2/WlfcX/73C2/2GN/UWOJSz3iM7v7tN/nBfUXNZ08/4X6hR+tq/2i/t9r9/u071iPaLqfnzeI1yP7+bafVO/W/XyvcDq/qsZB7y/oG3tJ38rgft5r9/hiT+dR1fLIyZfw+ktRe+wX2vOcr4Lnc31B442T/1D9SM/Hk/9QfcTK14vrs1YuDq43vbLlL/ZYr9Ry5Ym48PolaK0J60dZ4Q2V+1XZypvcj8+6Piv3Y3ZYX9Wenk+28vUlb9D4pF7SBl3Plffzz27WF3us1+j+XCv2S5K9L66nJ03Ptz3VU5LGS6dhCus5Wbm+YX5uKc9p+ML7Shqf1I79xfSKZr/YUz00abxXO9YL3P6z4POdfVV76i8mTWu3PcUnbj8xnnyy7/D9+vVzfcqfz8L6oL+vhedpsnZJ4Pnu6ycw30laXj6AH3w+sp4b4xWS7oeN+/FunxHP8WRP8VLSclxjPN+TPcWHbl8xPn+yvzx/ud+G+/OTPdWL3b5jPvhkz9+L2g/EJz3ZX96vtFfmZT+U9b/tF3+P0h5aP7bftoXxZ9L4qgXG51Yh6wlLm0nLy9ue+sFJ87Wesf+dtPy+7Xk9FLn+gvG8wRd7xXj4yZ7qFX493C/0++V6XVL46LbveD0SP/dxe7+h9rz/S77Z5+XvSz617QmvYN9L/wRA/mvfe+f85RM99mnP/RWDP3XulyStDwzOL5K18xIXoLX+PBg/nTU/Gnx+Wfw/ON7Or2rkF3vab7Pun6Nx40PhjqNzf0vrCWMw3uL19r/Y0/Mv+v2O+Wqwfpf/yvO85dcSj41g/IHmIzMxvkHrAzNf6iey3mbBelrVhsqsL0DaN/YCv5zt9Yvf1WeW2gfhNV/R8qd9Zzy6PZ+B/eCmcLXJ+UXTeu+2x3mJVw/u057zhab55rbneqDA52Zg/tW1HrXt6e97ez1h/8Xgaovxu13hsitjfdXq29uevt+h8LZVcN5j6H677Sk/Ha/d+NO+4vsdGq9ue1r/Q+FM63NA6dHe4Pqr4/1Ou/6O9aVp1z8wvza4zpqvJ/xov3S/WhPxpkvhT2vhvNDS/sUKjN+WxifbvmN/U+C4kRBvFLo+t/2E5xMKT42M+JgweEnG+ljo+RU8zxYK74mC3/tpwMsDqrhAvcUfjGjNhmAPhnjmzyf+xQExblakDG7a5Kygo+hXMMdUB2obbwfJC7cDPqWsB3Fw4/4gWARINBgYZKX37YBQtKJn8XZAuEjRZHU7UHKVi930YPRa0emA7UDloFw1nwzGBzjeKriAkT/r1V8cKOM7gBX7BfxEu0HMJmMOuxYtY/HyHtpFiMVZwdC0LzgMz9OWxsI4YTvoauXCTV4KtIzATDeHHm3Bpd1s2KDtQLH+gTYMdaBg8D17+cWBqoun/dPUAeHSBveOwHzxJHR2STQgWmwgeTvgREu1IzewJH9yHLsknJGwpngEfnGnqx/mQO+h6RTDzaFrHep2SV2BNseBEtNhO19gJHNCYbtpas2WabFPYO/9BKu+vOkXlkb/ETydsDR9P980PaV4eA847/QJ1/26L1ECbBXiWPjizkShORAk2kccz2bMM5fFHAiaenrKfj7wFKvfNL242hRHcDmyqiXm24HAr9WQT+cUpcpLV+aDyzldLZfcDjiLOxU8tB2o2XOG1+2SKPvfDrovcTnl0AeEOtAp2qxBGgzwadl274G7d7OJqe1AJ1AzTFAwRql5CDfw2N0OugkMZsXoduwObKu2YQnHwL5Ps8JEDCY+mdpJuKQDbT2kA1SK3A66lsbrTzw72OzUSWnokkKrbcHTR91z0Y5wq279gZOWwWa8HXRf4gGqXh5SS0Ksbge/aQqle324aYrIuoEO7w56sF8crIx5d9Av7uIwtJFyc5h2Al0dxo85rB+96aXFuptD/OCbHukHb3oY/uTmkHUe7+6gdY2Lg7WQLqWWUSyU5pmKUV8l8K8OdElVhwS3A0XGw2DBwbDg0+Wzx0oHyjBelOBC9DAk+qmR0T14EaEjVG3YLEA0jMjGtH2pIVhkTEWfbQeKvbdD2C/g0ljaj4yGscbwiIwBRCNseTdE7GwH3Zcahg7TS8CMqZ9Jm4ynoktNjWRV6YbB+vRdo+Fa2g4ahjKOazvom+bBg1msJlAROT6Ltsai4mqd1us9DtRbqlYorxg6zGbloop767TxieABwNktlK7cH+tWLqq4VU4beN4O9AGdhrM70MjUfGiJ0N46bYgrKma7c9mxyyiquRS2GhU34xkP90A4gOmhAxO/bActqhVEmi2DvkXBD2j5rlF4FjDbKVowtVxeOWH2nVVs8ZXXMfmdQ7N7oOW9igJ0tgOt1mXj26dDSB1RTwcK1r1XtR5qwc14Nat7Myh4NctFM7J4rGZT9Bnb3stoeCLzY+228zGwZ3WdnNwOOIk6rPrDoy3Lmy4JZy2XcT8FkzuuaUlTQnThmvYemJ5vLatKJ+yXbwf9RBOGDss6+Pu/UIq//7dEM/u/UD69jDLtYBCoh58MxMKkEmGoze1AKI2zcoo6UOXkLObfv4f9oGku4HxfSR0oywrL47YD7XzbIcwBn1Ix6hDmJjkb41IHGu6JorXKNfEEOqdBqAO118LoftdEPGlUzePWxEJ5VEOADdxmwpLXs/HQU2oaaxwMEnEmNK3onr2QbtqK/duBUMYnkRSHjrHGSYbNgbbKsLh1MSLkVDHsF2hy81QmQx0IGn6qq+LQ+JseCm5fjW962PfQsHF0KvUGl6OqQwzbNRrzbxi/7eIc6PQzDCFIiNQ3YOSLA1J8TFtLBTHQp+tT1IGiypia7a6CKMfTuTIYJZ4PRmO5OCILq5wsJgo/7bpQB+oOxNK2zmLaoTDqs8Xcu+8u6BcH3FuXoacDiwink2sOSOdifCsnUeOnJN/DdqBMcTvIi5sMtDkN8q4O1J8+LfiqDniwh8ZLcyFi8I3D+XRglGoYDHNOXhqhDe3JuNkwntzJfdEIJbqejOQ96Az7BSrbheGXZufVGjocOTsWc97QoC8OeLC7Q0N60UcHmh96dLgsPneghOPBoXK89OSAW+WTA26VYdsMF0IeHZCW6snh8omqAwtbPDpggOVPKWN/+sEhcZD45EB9oIcPiKeJHh1ub1rmpwKLzMehqQMB6N/4wC8OlOL7vjQuJ1BoNDMWzjwch6oOGLdacfP0bSj8se1+OxBu5hwoNsdGvawwrMN2uGxkkrGPeds1sl0Sjj6E5tODZ71PJDDUgZpfb2zdFwcqqnlwMhjgcRyaOhAGK5Ym4NuByqcnwJK11G4xn9TIBlMae8y3HXDxLY3uR71FxvpN11tU2c0hsYPUvUfh0MEGh0bhAGvZ8r4cKEtr9yPzZjx12GAk3pemAgsGi8uETW8dQAb/gryHfik9mrzMZT77JK8y8L74A5pGGL2wnXAmNuSSJlcSh2J/OnMoh3E098E1gaHfQ2fwXAwbw++8+Ez2oF8iY+sO9MYpzdDu8Xa4/ILAt3u93YO0EzqPir3Re58OBSvrYZDbzuoc7xmpT4dLmaIrkrmzvksY7r6n2z3IZtwTr6VulD7BReauzeB2aSd0IzVZXJCyqeHGLN7HIakDDaNF19pMm3w+dCVSaDzIFTZh0QaXWqwE3BjfGgZibJ1nRbuGcNvhsrylod0ab2Rdv+mjh8jLW7rHrXKZomvZrjH84jhUdcBM0Wr3rfCIbNMQrhWOjK173Jhk9aDGxCEjCvg0LMwBYz4bCtwOGIY27Vq2zBVdY0pozAQQBhZqzAsfJnXWEi8+135JHJxU7YBXZksIU4upPL12kD72C5jtViPADC4XGfr0MNDR0ijalK9MEe1tzsOJR+/BBn3r4ozdWGEqT6S+h9y/OOAZZ3i+7YC7d1Z43iEapM3YwEKVB33D+PnrpfOaNDjZDthuTrrN1MEFKWcbHBxKG51Y5TmUw5Yw1QEPxaTDyrXj0nijM7440L60wtZSZ+yPSfhUxkofRMhUByJtOnAOuemG58MyWv/KtE3LeP1ruwFtBBFSG1YSl1UdKiuJLVMiOtqVdA/G7V+56rCWPdbKZCVLO+C1Yst8mRpsvWASjT+lckqzHZTQlGVAljH814L70jKKmcpJ0zKO/1rw2F3DvjgmFTz4j6YOiFQbdtMZN7I1tPpTOcBaRtxfrwBA/R4ynqLLZvy2A5XtDmDEuKdxtXY7pxOT8TQ7p5ltclmgWxPvrc3edGK+H9NnP4Th9JSMEawyg8+yqHI7IFzVgsTCUeUyzd0jM8O/IKXHEvxYLUgsPCm/HZRnP7D6s2zs8K3U+p2DhD+HK4lu2pR6CwMLDsIkqQNFxsvI2wvXKh0gXhiJsLJGM4eSgODbxldZFu+tRnZ0EWRbJjj/1pz5zqGaA9WMV3rQSKCdb4bm02XyeI+1CI8qBKylae21wrSq03pZRzeQJyxk1yg8e3xAL3IPPOg7DY5UOt/D0oG6wnHrnNqaOmIkPOki3ePSECt9UDImj0Jdy4OSMQfUW5raU3xTPD47GADwaKbwPJAUEQ4/DC2NofXWwgCPacX+iwjOtFL80UHhqSmVJSk87mayj4URIbMr1qHw4MoZ5OrqcLkHfUoFw5/Z7dhl7fHtIJHxkfvge5B0oPDQx2yavBYO4Wazgz2xflczgZiEWdYZ2UvqQFCeaYqXJTFFZdMWYWHO8zN2+Ps3fUTCyKEq9DkHQgxnNUlKpm2f1XTagmdeq7YIM09YzKrv4Si10Yur2qrNi0cnq4ZwR+yXvumqSVPmVu204uahZaOnVBR+kbm3e4ZkXY+P7qFobzdPXq3FXtzkwcZiL27wwW6TwXkgpGoW3cgyEytOU2XKzMJ9wHhy0ywLMV1AlXXGjkNSBxr6mDbekxlosx0kmskde4oz61zWWyz4OwfJdjMjc2bWeCmzWvo0Vs/cEDdzHOQeKgdYWVu1F03X7aDbDNfIZlYkQuYh2Zk14chcwZoulZuxZnwchjpQ4jezHlmH0fVySfIBJUxep6WWOSH36aMDtROmSQ8E8w882ONx4pwLt7em9H9YJH+jcV/2rLx07FVJnDjnjr2Me9woI8R+4tDNNK7NifNbM2vhiqlqp/H+DV7TNvPJSl8zGToNi+nTpLIGb11J89tLPpz0jLqQ6hjz4oXxJkz6hJVmjWilYVo4rCXTsG81DDjKw3ZvTPPbng6nYdNLPJs3jI6KByOGkVbw2TemdfexLTGm4aCYb2hq+ZznNLa9bOl8FA8bFGQp8+FdEqwib3sBpTNod1iRoGLReRhlWsX9ZHTrVGGZ0BmlKq+3plKz3P3b9k2fP3Fdjqq4IUYnbnuVAmRl7KpjbIxjOoBnfT4UZ42i6DAu6Yxs0r0YD7zRzl/s6fkbqz6HfQfrLHUELFQMQwoUDJi6F42xJdJNmqEgDVZfmg1wG3Xba10d10M3rgwOcrtBtzO+3z40HrgojQ+t5WZEL3YD57JS7raX9cDFt97879N+0k2qO+N+0qsloDgzfWgz9e8TjrcXbaszsnjbN32/qPRu3EMZ0+FuuWfi9Wbxf8J4tRs9U2Jm1KT13sTEqLY/JOwGNqMuTng+ttD9kHvjzYaXmEzH6W+v9k2fJ2X+h4+36v0Su+7UWjUD2ZvNmjDY4OCxp9jTBFwbisjIWJdr1rfJ2Odp1oVhOMZBe+vfL2RvkwG8/7Tu+zlxKzXDQWfMT7e9gAF5Hmrba1ERe38HGP7758kUEs044AviNra9Nl8wfmtFeS4LxofNEQ+YLzerPxZsKTSTbixYEG3ZOp2ICWkmDlIwnj/ga31fuD8kzXdYOaqGIRdYCCG0UllYadAxkoierTZnWbFGXh2OiB2gavttxfpPnYYixfjh2Ov9Xv5+1fwFlSRNgqeywsLULkXF+KQa7U1lQYaHv0/5uKslMN/ksdfvheo51eoJBSu+der64fyrTmuQ435bp+c7qFdhw6QF471q4A/OT5/sKd/x67kol9r9Vsy//Hlyvu/v6/492vfO9tW+d9pPbD0zuPnxe+T79e/xB793qp/7fsL1Ct+vCuYXvh/ev0f93i/f44/ZOxzrZu/7CdsrNASZPKrRKvGYXHUMHeY71ZhCCub72z50f6N8vyVdnwyMP/GPXg/xoJ/4St8XKv2aZGPh+D8b6hHz/RN/qj3Gw0XHVgqrpxTNF5ilt1VdDxm/x+aQGczfm6N+OP81EuCM9cBm2KuM/Ytm872sbNy6Nftv+WbS/Jri2zZ0/0z4vTfjUkzYP932y+obdD1T+0HcwG4WDyTOjwydypMCzfbbxN/7UhhO4nzcWFMu9kapfrl+45i7PJ/PGYIv9lTvNZg2v6+etJ6ZEJTak+5vCfPNbpAJrkd1I1+/KJMbROlSb7SRiEs90/bPjPlINxnKSz22er0L670mVZ8xX+sP9SLKH7uxQmTuj9j+dqm3W38zI1HA6V/ofovr0+JzPl+61T8v/RGbPuT62OkfaT5I9cxuhF6X/pHpunB/6vTXrP/F/TsdIeL+bHqI98jegGeFlXKyUtAWxks81PdQ66c81K/oeRp69tJvrVqPZRbg0TRe5XrI6Y9rfo39ZWO9uPSvu+7nXE8bPv/I67NrP65ivH2o4rT+QPi0Nxfd2x51kyxeqnj+DlNXYOGaba/TzIx3eqhvUD9o20+tP9y0rvT50CTCMDHeivvhwSNpvZHqUQfvJHwjqFgzluJbmCXvCa9VWHhLCYR4PwxjWcL+zrB+ZcP+zgidcWC82UyKb+yMe0/af2SBuMN9qn8fRy6Sxv/9hmwWpiGW6nTY8cD14Mjpge/LodmDh1iyETrf8KIySn3Fo6oCwVUiTSjdb3ha6f9e8boq4nPDA8ucxRVvbPYXPLN8j1e8tMbDV0C2O9xWUFIHapn5K8sZezy+5jKDdB4GFDJWLWbWqlTmsPI4dHXAWS4bA8+X2casTA2ZI4kzKDLU4bKUhEchM0vadKxOw+bHNAqm3Hhqryi6bTvgVIbJpObGb7po/zh3/h6KAS4Y0X0mrWRpXCDmRUOE7YC6eUVrKtuBgsBZNOnYDpd7UNTXuKk8Sts/X4blq73pyYO11Qqdk0dRqg2wTdaRrLbzTf5Eq+0ai9dStRe3+MUZOiUvnpOt9uLWbRJX4sczAcqDtQKou82YNq0I57iN7moJJDhmaIp5zkwXP015qaTbTeugeeIjyzhqLnVVlxi9FCanaf+dyiGLmEqmdkpvPGiurcTMQ3iWK5fMq7UbODnf7kHRS1xeOrqqWR0wHjO951PQoUsySuMLAmJaBn+BrBwuCKN2wKFUqzlekuxpbNcna2Y+C9mMT1pLj9Xb0iyZ9UjicaHYcMYMHNJeVknk0ajp0PgLEcnSXKZ0XnxebO1MsWGqRaVfKWdkeY+bgq6u1oGAxBlW4GT5hOUVXabNWQ4BnMwwZjN/J2klVigbKiw8v78dpOp3SXOPKpjdA9Xtl+X1JzGmS8q2GS+mGcw2GbPwizvcWUsdiCFgFaPNWUwzWAy8wHqeR2FuqAPydJpS5SW/X6ZUWQILIMsGLgprnS1Tqjy0arSWmp1xTAd81AqdGo4uyfjwtgNV/Q/jnrPVMUWfsjdeFHSNBaeyCNGyxuBhDaSbNqRE5dGLI8ZpvITINWq9x+1AOmHLhyVZXXANQ+9xqeVwXBplJbLKPrFoUkP0gaeTWQ4emEAzE+g5hDgzRd+0mcmLFPg0QsmL2Pg0ykqmkVoGE6mM01+mNFN5UPHw1hpfKp5AJq9TC6/WJ+7dC9GtPiWWkDv8wfYLuPNZd3o7EHxiGdylcslrmYpXbcxxaYpwlcnnVmguWlmq6XBRyyVx3BqGwamdhViTDTV0JtU3VoXKxDyRbPfurET2xDqOwsTOaz5YTc2YPOpFj8dGaSrHrZGNi/oiz5m1XPSGJz87GN9R5aJaWIG2XmSOin1Ak0UminHvLlaPKiafsJjMvdibXry8q7G/X4RjqtEBL5Y5qtbV5zA0rJJYg5U1nD84WG/BiQeCpfwMGVsDCyFhYWhLN8ESVQdJLBHUNJppXFRzSfbtcLkH2YzbRZ7TZV14IPwozdgvoOqpa9mUm2qRBFjb4aK8JKXHVm76VJL4NZ6iepA5qjcdelVeqiwy0bU70C7CYkbs2RoL+LjcVL+Jcsn5cMDaLEIkWMTGBHpHY8vVo1gySwV8Ju9LruI1WTzTasZHY4svSTqv7SIcY9Jl7SLEaiPQjXv4YYnfQT3zixPQ5lFT45tWCTmGIT+I1DHO9jiY5txFv1DCn15uv6AajDy6e8QC5Skx9u44uPYfvTgjC+ntqpDY1AE3Y9dg7ByGDj3Y+yUyHqb9N25PSdKBoyNJ78HIq/vkM26aBuO8qW1Ki/CobfIlyd66HVCJbBptGhPdHtXTog4Y8xkRTg+c5I1pKsA8qhFLP9HBszVHffb39zCY/CGWBuuHjom2yqUHyrhozpm8zmB+pKMC3NUBVR6X9oFG5eje1ZivSvfSdBmND0WbaRwMojwOoQ4XDXeV0WaY43FY6oBKlaGf6OgsEO3a4Zd9KTS6HwPbnGGCVoMpjY/CunwPkyNja34duDPfg0ofX8Kf0OR1XCTkwmS0WYojTMZiLI5mwgSiF4KFwupLg7s0x0GWRvB2H5qLjuBvOpRq/c2b+eiQk/GEDMaQPHgcbPLlLkIdLm/CHW5vwhwu+4Y82HlJX58cMDF7ckCBTndgiMejA+GLHh0wiHOH+oPrdXIh++HFXc8gdWCe0EcHTPL9Hrgu/eiA8pnu0FnR0/aNgzi6PNamDhiThVZn5uCIyeh757hd0rJfIMBqmDDkZPBCWENhXs8gScEPloZfnFQFJkMLIjTPmovllS14mBc52dBa4mQdrwjt40/u44f1mmZwEGdx5bxUBWz0ZzEqMYzbc12kia2Fty4HirFJrcS1E8sgVuaob2lVYGUk6I2lmPJ1Ua22ibDFFBVhFM+rcIVpaoVpcSs1rOG8mMXm5LtFHWjMJYz2Zjug0vA0XnrujJ6qgFxSu9V/JDFb3Bn1Ush2wHsYKnm4LmmTFYxW5/dgAIztgJtxV7TD6j9YrVw8UBamt3lwKFx8lGz0wEouPY6iDpgFmVjTgZVcVNzNAcOfquf0GgjVj6p1hzW5GG88Mmvyaq3a/loMAYyiReB17YzKaOUR+r1orJsDnnFFK65vlMh3DroZ83xCmHzmuhzsxqexLtV7E3Y5KBH+BYHPvVEizw5JgWGLEX1hnFDrIpRq6uFvefDvHPRNB8IjHDkTnLwu4/09d8VS3bKWDoaDcV7C9B1M5XJgW00dLqrVEvMFp8dnF5Kbzlg1XsbOG9x2WdaniXyDMcrii4x16WX6gpFxUtHllYMpsc6pnNQBxV6btoODScCWbfdRWLDWVBCCW9pH/Nh+gYqPy0bqojDiu2gOFMzksYq2XQ5whRxsJjWYi3CZflRcEH1JI4Fg9tpl0/fBge60FD+Yn+MkYVkdCtz0DHusldXOlhaBgyk6fLAkuPpz8vOpDvRNu5xsVDxQpsF6T0DEYq/JHKhJeIRS7R5oeZ+BN3tKqHvadNoyWIrmTCraU6JD0cczo94GQKXqEI3ZCnzXaKz+V7QpcmBWF0HCMAceTNfdu7GCljGiReMBUKNcC4baTON0i8aDhzZCFA3jVmcpOTkLy2hpNNNYB2ZpF2U70Ac0lqJ/orFy0tK49SRqLBWlmwDPyjsX0MGWMTmRZFkn2WR1Kf1EO8beo9uLY2jy6Hawd2xYHEEnuwdUKPNopmOZYhjl6Btx9J1DsaeEpEZFSZOiM6uX0SicwgXROJnIaHA7eLgO48UhPayli4MeWezQQ+FzNweDFtwdHh4rOUwL4a4OP3jTw7aZi4MJrt0d9FC8ODSVgLg7pB9zqE9vmlWJdPfuiDrpJn58HIi3MdtGNjB06Ca8eRyICTMZs9DA0KFZ1SGYa6oZJuSN8Xt2WIp2iIENC2fLfZdsnx1M3udg/JhPWFPLgQXa7aBvmoubrWsFK3ggujUlOQjWTG3Nwp+BsK1WLfEbGGu8AeFfHOhAaU5rNTC1bMnC0Ik1gSPUUtXhonSi3/TEHkq1TlNMnGpyrYTg4Zg6tFX7RhF+56Ax32Q5jK5l7NM/o19olgMt7IBXX3wLq6G12gnE0zS1aD/u9DHZQSOyhT2U6pWThYiQaipHwZCnajKSpz0MDsU340CihmLCbxHY4Tij9PYLNCx2+APsF+jFFcPQBhP5lGnBOte9i7UIg1FbRx3a7oEC3dItlA5+cd0OxcBPtDRd3l+gZd95KLPVzaNaTfdyUf6RBu7fb1mef/U5FTupuWVRjCk9mPqwGAtgBKZNbz6kr8sPtoHiOUpgkl9MHTyY7jGH0i1HIHImG59/BNZOss2BB/N55WkJAaM3s0kwnL2PfmE8bcewlvJ42I6JiSQbGUQwEVs2fopzLLKDTCgc+D49pWqVb2aEydUq34zzyvUhnqFgOpeHEIsSguzVSo76clEsQjCEO+eHHIVi42y8m++hn+8cPIOgpnnOFmJxYpa9gNoZapwf8l1c3slaqYyszDYtH41fXLKn1BBJth28gIofkJEQBCvJG849LnMflpYVRq1bK4uZ5Eyo+z2d/2i/7ADN2JdaCiQNVhK2yZu4MOzoubCC+8YPIAckqHqAjtDJNjV9W4xSnVpVWpP5c3XDXjwba7Hq6swEr/v7ticiNRMGXoy/tlnGwwtFlXG7fu5SWuq5+Hvpuj4XK9lameTgOkk5xHBvF6UXjfwX82V23X/WRalJqzaT5/+aFgBnsFKc1jDnuvz9Yvao7GT4ZoajVT2J56X+oqnauyn9jb0Sx3dcD1WLL7Oz8qqu/8lTfEYCMivn17YeCgKmjNR58no2munJZBhFk8bBBCDFhke56mJwlbd0x/MBb2NmA/fPrMHoYJbsrICE0RF/lm38sCGXVNasZlSsJBjj42BkS7aBNB5rMiGKwQP8SQsbR/oI7teEukfC9ZkeJq4pN7Z2RWcKnPQ0Ag7rORk5AKNnLWDtE/erZPQGzICebEie2wJJU6UjXYZ/Xwkd+uX6pbyy7akhlRT/35nb38YlOyvzJI03OrPH+fWw8rzfb8b6U9J4tWdEsSTjx0i4nyTdb48UIl6PnO8tcH9LiotuC+EiSc/TxixZyciZJuY79v22efv7wvsyLtfv9hS/uT3PCj7Z03nq9jwe+WRP+ZHbM3jtyZ6/X7VndKm/X1bec/uM5d0ne2pfJM0XGoO/DbraOP6386VyxTwZSymPqCcTWgsc1U7ah6gLeynJCESZJyApzKNOLPgnE7qbl/3Z7an4mDS/q9zTfrKndrCd75UBG/73GRbm99sv8ZXEJ/W2n+j64fjW1v+25+tRdktWxkvG88gTitZrqVzfcwLQenlfKiTJ9FRG+V4Lrp+s8UYt2NB1elEew8gaD9SMEwyW7xxqaPz7+r5Y5itrvlBZydm5S1moLJvIRWC9wkbVyqV7bWT1gfma5dfvBvt3+btx29P5W/R5FiZ+KaYawvJHxZ7nxHqRdZOOCgNBUXT/PBVOwliYsC4juao9z4FUVNWeZ2cIh67PwoxJpsRUuN5r9bfCYOum9aujnAnX3xQfUjhfsyHewvWxptRHhec5mmmdsDJtM4mNykrjmv+eChvWe/V755Ex4wMtTBrfTUjlouz9oI3E9XOppxUWExhazzwnLPcLTG8Klbc1f8wMObERpRxYvxr6fLY9vS+jPczBkkVab8mLJ6BMWJDz5ant+zzxfRnJRL4oqSpYPU98X0vXQ+bevQknH9gG9h9l/8kM5TVqwcz7+TJFTgaFm9ZS7vh+l+4/uTNxs+4/+ULJp+fjtkf2Fz0fc2M2SFNd5QkmG5HKPIQVBmNjpeucFKmUucGfrUKWWQctJ5Pu5NnQbDlG5hpHTnbThfFcJv+cC3b5D7qkqQPR4R/8ivxCxqn4nO0eMgYGB7RT1IEig2yh8XludEnFvuWEtets8xo58WOttrsz11I2PhCGBuZq87B8B9Vwplh9yT4Dw6Cjph8P02i8P/a3PULwmpFi4O6YjWWApVOzzfEx+iObeCVTEJ/NX/8+wia7Ucshrv4cXtLuxOrjW9H3bU/oG8dMDszezuEu7UWG9lk4xKLGeVq7DWkfTzBTxB4hblPbnZ3vd1k7Bk/jvHT9dAa5mthRw+p7Dk2fG3ZL3pq5b3tcD2Ek9lztsPZWw+j1oR2A6+eU40RvAferh/IXPs+3NO0Xe7p+A4czN8BDeQojg2LiiFd7VUTiuQQTDa8oVFKKlSuxenfKNVXt6XlWDdc5mDv/W98vRSnFRA5Z6as0K9cjPvWtLvu2p1mvYkOrXL0oTdOxit0kL19UzP5LN8khRC2XbkJ/2E0627deD44jGbFR4e93mCYlVuPK0PSZqzunXKDXQ/vnKRdIeQTjN0//uXpUXN+Y0WQmL8CsyCedl3IWpg0nnZdyAe9XSwHgmWdrPN3m793TZ8xWi7HHZ2RnLTY+mvF7rAYXYXRetXYwd1eOGKneL31fb6XQl33iQVCDq7GwVbUxiITxSc0a/yRkcKwGF0xYPapF4StMDvdWv/xiT++36MhEwjGRau0MRl9ue0nLE6KHalX24ITEKKc5q8+T9vNqCr2svVZNJIwFfd8CkF/s6f12ncNn9NNbzfGLPb3fofEeT0zWofnFxd74c6/2TdcbXv/U0hTXK6qRGCdEC1YTl2E+yAMO0esnmqmjmKjrmfL9M62vfx/R5UZomXhs3YRdGc1ajVU9YX2gGt/+ZXrA4HyJpwGS7yd03jWDB7P69VvG8Is9Ez40/d6pPrbt7XlSvNds8C9hfte8SIn7yWG4UHskS7F2fMZ4+wgeanyCRCbVaqZ4fjXLpzJ2h5qpdbIsR7P8KPPzt/OFRSiP/VL7C0mKxv/4vtpD/EzddZvKZ3W7J3s6rx/tL/er+QvtV82ESXlasTWtP3P+0owmjdGdzcadCu+HTeuZd3u939v1sP3+h7//4Z9//u1f/vSXv/71H//89Zf/+Pnr///TL7/+/O+//vKff/vj53/6x5//8Pef97/9Nw==);lineShape=1;" vertex="1" parent="1">
          <mxGeometry x="-675.6808056709531" y="1327.3918549154957" width="571.6576759916352" height="553.1296491062357" as="geometry" />
        </mxCell>
      </root>
    </mxGraphModel>
  </diagram>
</mxfile>
